<svg xmlns="http://www.w3.org/2000/svg" xmlns:xlink="http://www.w3.org/1999/xlink" xmlns:lucid="lucid" width="2721" height="1641"><g transform="translate(-119.5 -239.5)" lucid:page-tab-id="0_0"><path d="M0 0h3000v2000H0z" fill="#fff"/><path d="M380 266a6 6 0 0 1 6-6h188a6 6 0 0 1 6 6v1588a6 6 0 0 1-6 6H386a6 6 0 0 1-6-6z" stroke="#3a414a" fill="#fff"/><use xlink:href="#a" transform="matrix(1,0,0,1,392,272) translate(20.77777777777777 17.77777777777778)"/><use xlink:href="#b" transform="matrix(1,0,0,1,392,272) translate(73.80246913580245 17.77777777777778)"/><path d="M700 266a6 6 0 0 1 6-6h188a6 6 0 0 1 6 6v1588a6 6 0 0 1-6 6H706a6 6 0 0 1-6-6z" stroke="#3a414a" fill="#fff"/><use xlink:href="#a" transform="matrix(1,0,0,1,712,272) translate(16.48765432098766 17.77777777777778)"/><use xlink:href="#c" transform="matrix(1,0,0,1,712,272) translate(69.51234567901236 17.77777777777778)"/><path d="M1020 266a6 6 0 0 1 6-6h188a6 6 0 0 1 6 6v1588a6 6 0 0 1-6 6h-188a6 6 0 0 1-6-6z" stroke="#3a414a" fill="#fff"/><use xlink:href="#d" transform="matrix(1,0,0,1,1032,272) translate(44.2962962962963 17.77777777777778)"/><use xlink:href="#e" transform="matrix(1,0,0,1,1032,272) translate(45.43827160493827 44.44444444444444)"/><path d="M1340 266a6 6 0 0 1 6-6h188a6 6 0 0 1 6 6v1588a6 6 0 0 1-6 6h-188a6 6 0 0 1-6-6z" stroke="#3a414a" fill="#fff"/><use xlink:href="#f" transform="matrix(1,0,0,1,1352,272) translate(52.25925925925926 17.77777777777778)"/><path d="M1660 266a6 6 0 0 1 6-6h188a6 6 0 0 1 6 6v1168a6 6 0 0 1-6 6h-188a6 6 0 0 1-6-6z" stroke="#3a414a" fill="#fff"/><use xlink:href="#g" transform="matrix(1,0,0,1,1672,272) translate(34.94444444444444 17.77777777777778)"/><use xlink:href="#e" transform="matrix(1,0,0,1,1672,272) translate(45.43827160493827 44.44444444444444)"/><path d="M1980 266a6 6 0 0 1 6-6h188a6 6 0 0 1 6 6v1168a6 6 0 0 1-6 6h-188a6 6 0 0 1-6-6z" stroke="#3a414a" fill="#fff"/><use xlink:href="#h" transform="matrix(1,0,0,1,1992,272) translate(59.635802469135804 17.77777777777778)"/><path d="M400 406a6 6 0 0 1 6-6h148a6 6 0 0 1 6 6v108a6 6 0 0 1-6 6H406a6 6 0 0 1-6-6z" stroke="#008a0e" fill="#e3fae3"/><use xlink:href="#i" transform="matrix(1,0,0,1,412,412) translate(26.64197530864198 53.77777777777778)"/><path d="M720 406a6 6 0 0 1 6-6h148a6 6 0 0 1 6 6v108a6 6 0 0 1-6 6H726a6 6 0 0 1-6-6z" stroke="#008a0e" fill="#e3fae3"/><use xlink:href="#j" transform="matrix(1,0,0,1,732,412) translate(25.407407407407412 53.77777777777778)"/><path d="M1040 406a6 6 0 0 1 6-6h148a6 6 0 0 1 6 6v108a6 6 0 0 1-6 6h-148a6 6 0 0 1-6-6z" stroke="#008a0e" fill="#e3fae3"/><use xlink:href="#k" transform="matrix(1,0,0,1,1052,412) translate(12.537037037037038 38.77777777777778)"/><use xlink:href="#l" transform="matrix(1,0,0,1,1052,412) translate(44.574074074074076 38.77777777777778)"/><use xlink:href="#m" transform="matrix(1,0,0,1,1052,412) translate(86.42592592592592 38.77777777777778)"/><use xlink:href="#n" transform="matrix(1,0,0,1,1052,412) translate(53.833333333333336 65.44444444444446)"/><path d="M1040 566a6 6 0 0 1 6-6h148a6 6 0 0 1 6 6v108a6 6 0 0 1-6 6h-148a6 6 0 0 1-6-6z" stroke="#008a0e" fill="#e3fae3"/><use xlink:href="#o" transform="matrix(1,0,0,1,1052,572) translate(51.95061728395062 38.77777777777778)"/><use xlink:href="#p" transform="matrix(1,0,0,1,1052,572) translate(8.895061728395056 65.44444444444446)"/><path d="M1360 406a6 6 0 0 1 6-6h148a6 6 0 0 1 6 6v108a6 6 0 0 1-6 6h-148a6 6 0 0 1-6-6z" stroke="#008a0e" fill="#e3fae3"/><use xlink:href="#q" transform="matrix(1,0,0,1,1372,412) translate(20.561728395061735 53.77777777777778)"/><path d="M1360 566a6 6 0 0 1 6-6h148a6 6 0 0 1 6 6v108a6 6 0 0 1-6 6h-148a6 6 0 0 1-6-6z" stroke="#008a0e" fill="#e3fae3"/><use xlink:href="#r" transform="matrix(1,0,0,1,1372,572) translate(10.71604938271605 53.77777777777778)"/><path d="M1680 406a6 6 0 0 1 6-6h148a6 6 0 0 1 6 6v108a6 6 0 0 1-6 6h-148a6 6 0 0 1-6-6z" stroke="#008a0e" fill="#e3fae3"/><use xlink:href="#s" transform="matrix(1,0,0,1,1692,412) translate(40.25308641975309 53.77777777777778)"/><path d="M2000 406a6 6 0 0 1 6-6h148a6 6 0 0 1 6 6v108a6 6 0 0 1-6 6h-148a6 6 0 0 1-6-6z" stroke="#008a0e" fill="#e3fae3"/><use xlink:href="#t" transform="matrix(1,0,0,1,2012,412) translate(12.506172839506178 38.77777777777778)"/><use xlink:href="#u" transform="matrix(1,0,0,1,2012,412) translate(64.2962962962963 38.77777777777778)"/><use xlink:href="#v" transform="matrix(1,0,0,1,2012,412) translate(18.709876543209873 65.44444444444446)"/><path d="M2000 566a6 6 0 0 1 6-6h148a6 6 0 0 1 6 6v108a6 6 0 0 1-6 6h-148a6 6 0 0 1-6-6z" stroke="#008a0e" fill="#e3fae3"/><use xlink:href="#w" transform="matrix(1,0,0,1,2012,572) translate(16.827160493827158 38.77777777777778)"/><use xlink:href="#v" transform="matrix(1,0,0,1,2012,572) translate(18.709876543209873 65.44444444444446)"/><path d="M2300 266a6 6 0 0 1 6-6h188a6 6 0 0 1 6 6v1588a6 6 0 0 1-6 6h-188a6 6 0 0 1-6-6z" stroke="#3a414a" fill="#fff"/><use xlink:href="#x" transform="matrix(1,0,0,1,2312,272) translate(52.29012345679012 17.77777777777778)"/><path d="M2320 406a6 6 0 0 1 6-6h148a6 6 0 0 1 6 6v108a6 6 0 0 1-6 6h-148a6 6 0 0 1-6-6z" stroke="#008a0e" fill="#e3fae3"/><use xlink:href="#y" transform="matrix(1,0,0,1,2332,412) translate(39.01851851851852 53.77777777777778)"/><path d="M2320 1206a6 6 0 0 1 6-6h148a6 6 0 0 1 6 6v108a6 6 0 0 1-6 6h-148a6 6 0 0 1-6-6z" stroke="#fcce14" fill="#fcfcca"/><use xlink:href="#z" transform="matrix(1,0,0,1,2332,1212) translate(17.47530864197531 53.77777777777778)"/><path d="M140 446a6 6 0 0 1 6-6h228a6 6 0 0 1 6 6v48a6 6 0 0 1-6 6H146a6 6 0 0 1-6-6z" stroke="#000" stroke-opacity="0" fill="#fff" fill-opacity="0"/><use xlink:href="#A" transform="matrix(1,0,0,1,145,445) translate(101.41975308641975 30.27777777777778)"/><path d="M140 756a6 6 0 0 1 6-6h228a6 6 0 0 1 6 6v48a6 6 0 0 1-6 6H146a6 6 0 0 1-6-6z" stroke="#000" stroke-opacity="0" fill="#fff" fill-opacity="0"/><use xlink:href="#B" transform="matrix(1,0,0,1,145,755) translate(101.41975308641975 30.27777777777778)"/><path d="M1040 726a6 6 0 0 1 6-6h148a6 6 0 0 1 6 6v108a6 6 0 0 1-6 6h-148a6 6 0 0 1-6-6z" stroke="#fcce14" fill="#fcfcca"/><use xlink:href="#C" transform="matrix(1,0,0,1,1052,732) translate(36.54938271604938 38.77777777777778)"/><use xlink:href="#D" transform="matrix(1,0,0,1,1052,732) translate(6.333333333333329 65.44444444444446)"/><path d="M1360 726a6 6 0 0 1 6-6h148a6 6 0 0 1 6 6v108a6 6 0 0 1-6 6h-148a6 6 0 0 1-6-6z" stroke="#fcce14" fill="#fcfcca"/><use xlink:href="#E" transform="matrix(1,0,0,1,1372,732) translate(22.429629629629623 53.06666666666667)"/><path d="M1360 886a6 6 0 0 1 6-6h148a6 6 0 0 1 6 6v108a6 6 0 0 1-6 6h-148a6 6 0 0 1-6-6z" stroke="#fcce14" fill="#fcfcca"/><use xlink:href="#F" transform="matrix(1,0,0,1,1372,892) translate(49.48148148148148 38.77777777777778)"/><use xlink:href="#G" transform="matrix(1,0,0,1,1372,892) translate(2.691358024691354 65.44444444444446)"/><path d="M400 726a6 6 0 0 1 6-6h148a6 6 0 0 1 6 6v108a6 6 0 0 1-6 6H406a6 6 0 0 1-6-6z" stroke="#fcce14" fill="#fcfcca"/><use xlink:href="#H" transform="matrix(1,0,0,1,412,732) translate(7.567901234567913 38.77777777777778)"/><use xlink:href="#I" transform="matrix(1,0,0,1,412,732) translate(61.82716049382717 38.77777777777778)"/><use xlink:href="#J" transform="matrix(1,0,0,1,412,732) translate(16.827160493827158 65.44444444444446)"/><path d="M400 886a6 6 0 0 1 6-6h148a6 6 0 0 1 6 6v108a6 6 0 0 1-6 6H406a6 6 0 0 1-6-6z" stroke="#fcce14" fill="#fcfcca"/><use xlink:href="#K" transform="matrix(1,0,0,1,412,892) translate(38.40123456790124 53.77777777777778)"/><path d="M720 726a6 6 0 0 1 6-6h148a6 6 0 0 1 6 6v108a6 6 0 0 1-6 6H726a6 6 0 0 1-6-6z" stroke="#fcce14" fill="#fcfcca"/><use xlink:href="#L" transform="matrix(1,0,0,1,732,732) translate(1.3950617283950635 53.77777777777778)"/><use xlink:href="#M" transform="matrix(1,0,0,1,732,732) translate(111.14814814814815 53.77777777777778)"/><path d="M400 1046a6 6 0 0 1 6-6h148a6 6 0 0 1 6 6v108a6 6 0 0 1-6 6H406a6 6 0 0 1-6-6z" stroke="#fcce14" fill="#fcfcca"/><use xlink:href="#N" transform="matrix(1,0,0,1,412.00000000000006,1052) translate(37.19753086419753 53.77777777777778)"/><path d="M2320 726a6 6 0 0 1 6-6h148a6 6 0 0 1 6 6v108a6 6 0 0 1-6 6h-148a6 6 0 0 1-6-6z" stroke="#008a0e" fill="#e3fae3"/><use xlink:href="#O" transform="matrix(1,0,0,1,2332,732) translate(35.9320987654321 38.77777777777778)"/><use xlink:href="#P" transform="matrix(1,0,0,1,2332,732) translate(24.97530864197531 65.44444444444446)"/><path d="M2320 886a6 6 0 0 1 6-6h148a6 6 0 0 1 6 6v118.67a6 6 0 0 1-6 6h-148a6 6 0 0 1-6-6z" stroke="#fcce14" fill="#fcfcca"/><use xlink:href="#Q" transform="matrix(1,0,0,1,2332,892) translate(17.475308641975303 21.12152777777778)"/><use xlink:href="#R" transform="matrix(1,0,0,1,2332,892) translate(32.25925925925926 47.78819444444444)"/><use xlink:href="#S" transform="matrix(1,0,0,1,2332,892) translate(12.043209876543216 74.45486111111111)"/><use xlink:href="#T" transform="matrix(1,0,0,1,2332,892) translate(104.26543209876543 74.45486111111111)"/><use xlink:href="#U" transform="matrix(1,0,0,1,2332,892) translate(4.481481481481481 101.12152777777777)"/><use xlink:href="#V" transform="matrix(1,0,0,1,2332,892) translate(63.74074074074075 101.12152777777777)"/><path d="M562.5 460h134.26" stroke="#008a0e" stroke-width="4" stroke-linejoin="round" fill="none"/><path d="M562.55 462h-2.05v-4h2.05z" stroke="#008a0e" stroke-width=".05" fill="#008a0e"/><path d="M713.03 460l-14.27 4.63v-9.26z" stroke="#008a0e" stroke-width="4" fill="#008a0e"/><path d="M882.5 460h134.26" stroke="#008a0e" stroke-width="4" stroke-linejoin="round" fill="none"/><path d="M882.55 462h-2.05v-4h2.05z" stroke="#008a0e" stroke-width=".05" fill="#008a0e"/><path d="M1033.03 460l-14.27 4.63v-9.26z" stroke="#008a0e" stroke-width="4" fill="#008a0e"/><path d="M1202.5 460h134.26" stroke="#008a0e" stroke-width="4" stroke-linejoin="round" fill="none"/><path d="M1202.55 462h-2.05v-4h2.05z" stroke="#008a0e" stroke-width=".05" fill="#008a0e"/><path d="M1353.03 460l-14.27 4.63v-9.26z" stroke="#008a0e" stroke-width="4" fill="#008a0e"/><path d="M1522.5 460h134.26" stroke="#008a0e" stroke-width="4" stroke-linejoin="round" fill="none"/><path d="M1522.55 462h-2.05v-4h2.05z" stroke="#008a0e" stroke-width=".05" fill="#008a0e"/><path d="M1673.03 460l-14.27 4.63v-9.26z" stroke="#008a0e" stroke-width="4" fill="#008a0e"/><path d="M1842.5 460h134.26" stroke="#008a0e" stroke-width="4" stroke-linejoin="round" fill="none"/><path d="M1842.55 462h-2.05v-4h2.05z" stroke="#008a0e" stroke-width=".05" fill="#008a0e"/><path d="M1993.03 460l-14.27 4.63v-9.26z" stroke="#008a0e" stroke-width="4" fill="#008a0e"/><path d="M2162.5 460h134.26" stroke="#008a0e" stroke-width="4" stroke-linejoin="round" fill="none"/><path d="M2162.55 462h-2.05v-4h2.05z" stroke="#008a0e" stroke-width=".05" fill="#008a0e"/><path d="M2313.03 460l-14.27 4.63v-9.26z" stroke="#008a0e" stroke-width="4" fill="#008a0e"/><path d="M882.5 460.04h.45l2.36.16 2.3.24 2.2.33 2.18.4 2.13.5 2.1.6 2.07.67 2.06.76 2.05.87 2.06.96 2.07 1.1 2.1 1.2 2.13 1.35 2.18 1.5 2.25 1.7 2.3 1.93 2.42 2.18 2.53 2.48 2.68 2.86 2.88 3.33 3.14 3.97 3.5 4.83 4.05 6.1 5 8.27 7.4 13.53 25.3 48.83 5 8.27 4.04 6.1 3.5 4.83 3.14 3.97 2.88 3.33 2.68 2.86 2.53 2.48 2.4 2.18 2.32 1.9 2.24 1.7 2.17 1.52 2.13 1.35 2.1 1.2 2.06 1.1 1.86.87" stroke="#008a0e" stroke-width="4" stroke-linejoin="round" fill="none"/><path d="M882.6 458.04l-.1 4-2-.04v-4z" stroke="#008a0e" stroke-width=".05" fill="#008a0e"/><path d="M1033.17 617.66l-14.92 1.6 1.92-9.08z" stroke="#008a0e" stroke-width="4" fill="#008a0e"/><path d="M1202.5 619.96h.45l2.36-.16 2.3-.24 2.2-.33 2.18-.4 2.13-.5 2.1-.6 2.07-.67 2.06-.76 2.05-.87 2.06-.96 2.07-1.1 2.1-1.2 2.13-1.35 2.18-1.5 2.25-1.7 2.3-1.92 2.42-2.18 2.53-2.48 2.68-2.86 2.88-3.33 3.14-3.97 3.5-4.83 4.05-6.1 5-8.27 7.4-13.53 25.3-48.83 5-8.26 4.04-6.1 3.5-4.84 3.14-3.97 2.88-3.33 2.68-2.86 2.53-2.48 2.4-2.18 2.32-1.9 2.24-1.7 2.17-1.52 2.13-1.35 2.1-1.2 2.06-1.1 1.86-.87" stroke="#008a0e" stroke-width="4" stroke-linejoin="round" fill="none"/><path d="M1202.6 621.96l-2.1.04v-4l2-.04z" stroke="#008a0e" stroke-width=".05" fill="#008a0e"/><path d="M1353.17 462.34l-13 7.48-1.92-9.07z" stroke="#008a0e" stroke-width="4" fill="#008a0e"/><path d="M1202.5 620h134.26" stroke="#008a0e" stroke-width="4" stroke-linejoin="round" fill="none"/><path d="M1202.55 622h-2.05v-4h2.05z" stroke="#008a0e" stroke-width=".05" fill="#008a0e"/><path d="M1353.03 620l-14.27 4.63v-9.26z" stroke="#008a0e" stroke-width="4" fill="#008a0e"/><path d="M1522.5 619.96h.45l2.36-.16 2.3-.24 2.2-.33 2.18-.4 2.13-.5 2.1-.6 2.07-.67 2.06-.76 2.05-.87 2.06-.96 2.07-1.1 2.1-1.2 2.13-1.35 2.18-1.5 2.25-1.7 2.3-1.92 2.42-2.18 2.53-2.48 2.68-2.86 2.88-3.33 3.14-3.97 3.5-4.83 4.05-6.1 5-8.27 7.4-13.53 25.3-48.83 5-8.26 4.04-6.1 3.5-4.84 3.14-3.97 2.88-3.33 2.68-2.86 2.53-2.48 2.4-2.18 2.32-1.9 2.24-1.7 2.17-1.52 2.13-1.35 2.1-1.2 2.06-1.1 1.86-.87" stroke="#008a0e" stroke-width="4" stroke-linejoin="round" fill="none"/><path d="M1522.6 621.96l-2.1.04v-4l2-.04z" stroke="#008a0e" stroke-width=".05" fill="#008a0e"/><path d="M1673.17 462.34l-13 7.48-1.92-9.07z" stroke="#008a0e" stroke-width="4" fill="#008a0e"/><path d="M1842.5 460.04h.45l2.36.16 2.3.24 2.2.33 2.18.4 2.13.5 2.1.6 2.07.67 2.06.76 2.05.87 2.06.96 2.07 1.1 2.1 1.2 2.13 1.35 2.18 1.5 2.25 1.7 2.3 1.93 2.42 2.18 2.53 2.48 2.68 2.86 2.88 3.33 3.14 3.97 3.5 4.83 4.05 6.1 5 8.27 7.4 13.53 25.3 48.83 5 8.27 4.04 6.1 3.5 4.83 3.14 3.97 2.88 3.33 2.68 2.86 2.53 2.48 2.4 2.18 2.32 1.9 2.24 1.7 2.17 1.52 2.13 1.35 2.1 1.2 2.06 1.1 1.86.87" stroke="#008a0e" stroke-width="4" stroke-linejoin="round" fill="none"/><path d="M1842.6 458.04l-.1 4-2-.04v-4z" stroke="#008a0e" stroke-width=".05" fill="#008a0e"/><path d="M1993.17 617.66l-14.92 1.6 1.92-9.08z" stroke="#008a0e" stroke-width="4" fill="#008a0e"/><path d="M2162.5 619.96h.45l2.36-.16 2.3-.24 2.2-.33 2.18-.4 2.13-.5 2.1-.6 2.07-.67 2.06-.76 2.05-.87 2.06-.96 2.07-1.1 2.1-1.2 2.13-1.35 2.18-1.5 2.25-1.7 2.3-1.92 2.42-2.18 2.53-2.48 2.68-2.86 2.88-3.33 3.14-3.97 3.5-4.83 4.05-6.1 5-8.27 7.4-13.53 25.3-48.83 5-8.26 4.04-6.1 3.5-4.84 3.14-3.97 2.88-3.33 2.68-2.86 2.53-2.48 2.4-2.18 2.32-1.9 2.24-1.7 2.17-1.52 2.13-1.35 2.1-1.2 2.06-1.1 1.86-.87" stroke="#008a0e" stroke-width="4" stroke-linejoin="round" fill="none"/><path d="M2162.6 621.96l-2.1.04v-4l2-.04z" stroke="#008a0e" stroke-width=".05" fill="#008a0e"/><path d="M2313.17 462.34l-13 7.48-1.92-9.07z" stroke="#008a0e" stroke-width="4" fill="#008a0e"/><path d="M562.5 780h134.26" stroke="#fcce14" stroke-width="4" stroke-linejoin="round" fill="none"/><path d="M562.55 782h-2.05v-4h2.05z" stroke="#fcce14" stroke-width=".05" fill="#fcce14"/><path d="M713.03 780l-14.27 4.63v-9.26z" stroke="#fcce14" stroke-width="4" fill="#fcce14"/><path d="M562.5 939.96h.45l2.36-.16 2.3-.24 2.2-.33 2.18-.4 2.13-.5 2.1-.6 2.07-.67 2.06-.76 2.05-.87 2.06-.96 2.07-1.1 2.1-1.2 2.13-1.35 2.18-1.5 2.25-1.7 2.3-1.92 2.42-2.18 2.53-2.48 2.68-2.86 2.88-3.33 3.14-3.97 3.5-4.83 4.05-6.1 5-8.27 7.4-13.53 25.3-48.83 5-8.27 4.04-6.1 3.5-4.83 3.14-3.97 2.88-3.33 2.68-2.86 2.53-2.48 2.4-2.18 2.32-1.9 2.24-1.7 2.17-1.52 2.13-1.35 2.1-1.2 2.06-1.1 1.86-.87" stroke="#fcce14" stroke-width="4" stroke-linejoin="round" fill="none"/><path d="M562.6 941.96l-2.1.04v-4l2-.04z" stroke="#fcce14" stroke-width=".05" fill="#fcce14"/><path d="M713.17 782.34l-13 7.48-1.92-9.07z" stroke="#fcce14" stroke-width="4" fill="#fcce14"/><path d="M562.5 1099.93l.44-.03 1.2-.13 1.17-.17 1.2-.23 1.16-.27 1.17-.33 1.18-.38 1.2-.45 1.2-.5 1.23-.6 1.24-.64 1.28-.73 1.32-.83 1.36-.95 1.4-1.08 1.48-1.22 1.55-1.38 1.62-1.6 1.72-1.83 1.82-2.13 1.97-2.48 2.1-2.94 2.33-3.5 2.55-4.2 2.85-5.2 3.22-6.5 3.74-8.42 4.44-11.3 5.63-16.22 8.07-26.97 37.4-140.47 5.62-16.22 4.45-11.3 3.75-8.4 3.22-6.52 2.85-5.2 2.55-4.2 2.32-3.5 2.12-2.93 1.96-2.47 1.83-2.12 1.73-1.82 1.62-1.6 1.54-1.38.5-.42" stroke="#fcce14" stroke-width="4" stroke-linejoin="round" fill="none"/><path d="M562.6 1101.96l-2.1.04v-4l2-.04z" stroke="#fcce14" stroke-width=".05" fill="#fcce14"/><path d="M713.48 782.38l-11.57 9.55-3.4-8.62z" stroke="#fcce14" stroke-width="4" fill="#fcce14"/><path d="M1120 682.5v14.26" stroke="#fcce14" stroke-width="4" stroke-linejoin="round" fill="none"/><path d="M1122 682.55h-4v-2.05h4z" stroke="#fcce14" stroke-width=".05" fill="#fcce14"/><path d="M1120 713.03l-4.63-14.27h9.27z" stroke="#fcce14" stroke-width="4" fill="#fcce14"/><path d="M1202.5 780h134.26" stroke="#fcce14" stroke-width="4" stroke-linejoin="round" fill="none"/><path d="M1202.55 782h-2.05v-4h2.05z" stroke="#fcce14" stroke-width=".05" fill="#fcce14"/><path d="M1353.03 780l-14.27 4.63v-9.26z" stroke="#fcce14" stroke-width="4" fill="#fcce14"/><path d="M1357.5 939.96h-.45l-2.36-.16-2.3-.24-2.2-.33-2.18-.4-2.13-.5-2.1-.6-2.07-.67-2.06-.76-2.05-.87-2.06-.96-2.07-1.1-2.1-1.2-2.13-1.35-2.18-1.5-2.25-1.7-2.3-1.92-2.42-2.18-2.53-2.48-2.68-2.86-2.88-3.33-3.14-3.97-3.5-4.83-4.05-6.1-5-8.27-7.4-13.53-25.3-48.83-5-8.27-4.04-6.1-3.5-4.83-3.14-3.97-2.88-3.33-2.68-2.86-2.53-2.48-2.4-2.18-2.32-1.9-2.24-1.7-2.17-1.52-2.13-1.35-2.1-1.2-2.06-1.1-1.86-.87" stroke="#fcce14" stroke-width="4" stroke-linejoin="round" fill="none"/><path d="M1359.5 938v4l-2.1-.04.1-4z" stroke="#fcce14" stroke-width=".05" fill="#fcce14"/><path d="M1206.83 782.34l14.92-1.6-1.92 9.08z" stroke="#fcce14" stroke-width="4" fill="#fcce14"/><path d="M1522.5 779.93l.44-.03 1.2-.13 1.17-.17 1.2-.23 1.16-.27 1.17-.33 1.18-.38 1.2-.45 1.2-.5 1.23-.6 1.24-.64 1.28-.73 1.32-.83 1.36-.95 1.4-1.08 1.48-1.22 1.55-1.38 1.62-1.6 1.72-1.83 1.82-2.13 1.96-2.48 2.13-2.94 2.33-3.5 2.55-4.2 2.85-5.2 3.22-6.5 3.74-8.42 4.44-11.3 5.63-16.22 8.07-26.97 37.4-140.47 5.62-16.22 4.45-11.3 3.75-8.4 3.22-6.52 2.85-5.2 2.55-4.2 2.32-3.5 2.12-2.93 1.96-2.47 1.83-2.12 1.73-1.82 1.62-1.6 1.54-1.38.5-.42" stroke="#fcce14" stroke-width="4" stroke-linejoin="round" fill="none"/><path d="M1522.6 781.96l-2.1.04v-4l2-.04z" stroke="#fcce14" stroke-width=".05" fill="#fcce14"/><path d="M1673.48 462.38l-11.57 9.55-3.4-8.62z" stroke="#fcce14" stroke-width="4" fill="#fcce14"/><path d="M882.5 780h134.26" stroke="#fcce14" stroke-width="4" fill="none"/><path d="M882.55 782h-2.05v-4h2.05z" stroke="#fcce14" stroke-width=".05" fill="#fcce14"/><path d="M1033.03 780l-14.27 4.63v-9.26z" stroke="#fcce14" stroke-width="4" fill="#fcce14"/><path d="M1360 1046a6 6 0 0 1 6-6h148a6 6 0 0 1 6 6v108a6 6 0 0 1-6 6h-148a6 6 0 0 1-6-6z" stroke="#fcce14" fill="#fcfcca"/><use xlink:href="#W" transform="matrix(1,0,0,1,1372,1052) translate(-42.956790123456784 39.111111111111114)"/><use xlink:href="#X" transform="matrix(1,0,0,1,1372,1052) translate(-13.820987654320987 65.77777777777777)"/><path d="M1357.5 1099.93l-.44-.03-1.2-.13-1.17-.17-1.2-.23-1.16-.27-1.17-.33-1.18-.38-1.2-.45-1.2-.5-1.23-.6-1.24-.64-1.28-.73-1.32-.83-1.36-.95-1.4-1.08-1.48-1.22-1.55-1.38-1.62-1.6-1.72-1.83-1.82-2.13-1.96-2.48-2.13-2.94-2.33-3.5-2.55-4.2-2.85-5.2-3.22-6.5-3.74-8.42-4.44-11.3-5.63-16.22-8.07-26.97-37.4-140.47-5.62-16.22-4.45-11.3-3.75-8.4-3.22-6.52-2.85-5.2-2.55-4.2-2.32-3.5-2.12-2.93-1.96-2.47-1.83-2.12-1.73-1.82-1.62-1.6-1.54-1.38-.5-.42" stroke="#fcce14" stroke-width="4" stroke-linejoin="round" fill="none"/><path d="M1359.5 1098v4l-2.1-.04.1-4z" stroke="#fcce14" stroke-width=".05" fill="#fcce14"/><path d="M1206.52 782.38l14.97.93-3.4 8.63z" stroke="#fcce14" stroke-width="4" fill="#fcce14"/><path d="M2320 566a6 6 0 0 1 6-6h148a6 6 0 0 1 6 6v108a6 6 0 0 1-6 6h-148a6 6 0 0 1-6-6z" stroke="#008a0e" fill="#e3fae3"/><use xlink:href="#Y" transform="matrix(1,0,0,1,2332,572) translate(30.438271604938272 53.77777777777778)"/><path d="M2320 1046a6 6 0 0 1 6-6h148a6 6 0 0 1 6 6v108a6 6 0 0 1-6 6h-148a6 6 0 0 1-6-6z" stroke="#fcce14" fill="#fcfcca"/><use xlink:href="#Z" transform="matrix(1,0,0,1,2332,1052) translate(20.561728395061728 53.77777777777778)"/><path d="M1680 566a6 6 0 0 1 6-6h148a6 6 0 0 1 6 6v108a6 6 0 0 1-6 6h-148a6 6 0 0 1-6-6z" stroke="#1071e5" fill="#edf5ff"/><use xlink:href="#aa" transform="matrix(1,0,0,1,1692,572) translate(24.265432098765437 53.77777777777778)"/><path d="M400 1206a6 6 0 0 1 6-6h148a6 6 0 0 1 6 6v108a6 6 0 0 1-6 6H406a6 6 0 0 1-6-6z" stroke="#1071e5" fill="#edf5ff"/><use xlink:href="#ab" transform="matrix(1,0,0,1,412.0000000000001,1212) translate(17.444444444444443 53.77777777777778)"/><path d="M400 1366a6 6 0 0 1 6-6h148a6 6 0 0 1 6 6v108a6 6 0 0 1-6 6H406a6 6 0 0 1-6-6z" stroke="#1071e5" fill="#edf5ff"/><use xlink:href="#ac" transform="matrix(1,0,0,1,412.0000000000001,1372) translate(26.086419753086417 53.77777777777778)"/><path d="M400 1526a6 6 0 0 1 6-6h148a6 6 0 0 1 6 6v108a6 6 0 0 1-6 6H406a6 6 0 0 1-6-6z" stroke="#1071e5" fill="#edf5ff"/><use xlink:href="#ad" transform="matrix(1,0,0,1,411.99999999999994,1532) translate(35.345679012345684 53.77777777777778)"/><path d="M400 1686a6 6 0 0 1 6-6h148a6 6 0 0 1 6 6v108a6 6 0 0 1-6 6H406a6 6 0 0 1-6-6z" stroke="#1071e5" fill="#edf5ff"/><use xlink:href="#ae" transform="matrix(1,0,0,1,412.0000000000001,1692) translate(40.839506172839506 38.77777777777778)"/><use xlink:href="#af" transform="matrix(1,0,0,1,412.0000000000001,1692) translate(23.586419753086417 65.44444444444446)"/><path d="M720 1206a6 6 0 0 1 6-6h148a6 6 0 0 1 6 6v108a6 6 0 0 1-6 6H726a6 6 0 0 1-6-6z" stroke="#1071e5" fill="#edf5ff"/><use xlink:href="#ag" transform="matrix(1,0,0,1,732,1212) translate(16.209876543209873 38.77777777777778)"/><use xlink:href="#ah" transform="matrix(1,0,0,1,732,1212) translate(47.01234567901234 65.44444444444446)"/><path d="M562.5 460.17l.47.1.5.1.5.15.52.17.52.18.54.23.55.27.58.3.6.34.6.4.66.46.68.5.72.6.76.7.8.8.88.92.94 1.1 1.03 1.28 1.12 1.55 1.24 1.9 1.4 2.28 1.56 2.85 1.8 3.6 2.05 4.64 2.43 6.15 2.9 8.4 3.6 11.9 4.54 17.85 6.1 28.93 8.9 53.57L630.1 762.2l37.93 345.43 8.9 53.57 6.1 28.93 4.55 17.85 3.58 11.9 2.9 8.4 2.43 6.15 2.05 4.64 1.8 3.6 1.55 2.85.57.94" stroke="#1071e5" stroke-width="4" stroke-linejoin="round" fill="none"/><path d="M562.6 458.04l-.1 4-2-.04v-4z" stroke="#1071e5" stroke-width=".05" fill="#1071e5"/><path d="M714.43 1255.97l-14.05-5.25 5.77-7.25z" stroke="#1071e5" stroke-width="4" fill="#1071e5"/><path d="M140 1236a6 6 0 0 1 6-6h228a6 6 0 0 1 6 6v48a6 6 0 0 1-6 6H146a6 6 0 0 1-6-6z" stroke="#000" stroke-opacity="0" fill="#fff" fill-opacity="0"/><use xlink:href="#ai" transform="matrix(1,0,0,1,145,1235) translate(92.1604938271605 30.27777777777778)"/><path d="M562.5 1260h134.26" stroke="#1071e5" stroke-width="4" stroke-linejoin="round" fill="none"/><path d="M562.55 1262h-2.05v-4h2.05z" stroke="#1071e5" stroke-width=".05" fill="#1071e5"/><path d="M713.03 1260l-14.27 4.63v-9.27z" stroke="#1071e5" stroke-width="4" fill="#1071e5"/><path d="M562.5 1419.96h.45l2.36-.16 2.3-.24 2.2-.33 2.18-.4 2.13-.5 2.1-.6 2.07-.67 2.06-.76 2.05-.87 2.06-.96 2.07-1.1 2.1-1.2 2.13-1.35 2.18-1.5 2.25-1.7 2.3-1.92 2.42-2.18 2.53-2.48 2.68-2.86 2.88-3.34 3.14-3.96 3.5-4.83 4.05-6.1 5-8.27 7.4-13.53 25.3-48.83 5-8.26 4.04-6.1 3.5-4.84 3.14-3.96 2.88-3.35 2.68-2.84 2.53-2.48 2.4-2.17 2.32-1.9 2.24-1.7 2.17-1.52 2.13-1.35 2.1-1.2 2.06-1.1 1.86-.87" stroke="#1071e5" stroke-width="4" stroke-linejoin="round" fill="none"/><path d="M562.6 1421.96l-2.1.04v-4l2-.04z" stroke="#1071e5" stroke-width=".05" fill="#1071e5"/><path d="M713.17 1262.34l-13 7.48-1.92-9.07z" stroke="#1071e5" stroke-width="4" fill="#1071e5"/><path d="M562.5 1579.93l.44-.03 1.2-.13 1.17-.17 1.2-.23 1.16-.27 1.17-.33 1.18-.38 1.2-.45 1.2-.5 1.23-.6 1.24-.64 1.28-.73 1.32-.83 1.36-.95 1.4-1.08 1.48-1.22 1.55-1.38 1.62-1.6 1.72-1.83 1.82-2.13 1.97-2.48 2.1-2.94 2.33-3.5 2.55-4.2 2.85-5.2 3.22-6.5 3.74-8.42 4.44-11.3 5.63-16.22 8.07-26.96 37.4-140.48 5.62-16.22 4.45-11.3 3.75-8.4 3.22-6.52 2.85-5.2 2.55-4.2 2.32-3.5 2.12-2.93 1.96-2.47 1.83-2.12 1.73-1.83 1.62-1.6 1.54-1.37.5-.42" stroke="#1071e5" stroke-width="4" stroke-linejoin="round" fill="none"/><path d="M562.6 1581.96l-2.1.04v-4l2-.04z" stroke="#1071e5" stroke-width=".05" fill="#1071e5"/><path d="M713.48 1262.38l-11.57 9.55-3.4-8.62z" stroke="#1071e5" stroke-width="4" fill="#1071e5"/><path d="M562.5 1739.9l.45-.05.8-.12.8-.16.82-.2.8-.2.84-.28.85-.33.85-.35.87-.4.9-.48.92-.54.95-.6 1-.7 1.03-.78 1.1-.9 1.13-1.04 1.23-1.2 1.3-1.37 1.4-1.6 1.5-1.9 1.62-2.25 1.8-2.7 1.97-3.27 2.2-4.03 2.5-5.05 2.88-6.46 3.35-8.5 4-11.54 4.97-16.53 6.54-25.64 9.97-47.58 42.3-233.88 6.55-25.64 4.96-16.53 4-11.55 3.36-8.5 2.87-6.45 2.5-5.05 2.2-4.03 2-3.27 1.78-2.7 1.63-2.25 1.5-1.9.7-.82" stroke="#1071e5" stroke-width="4" stroke-linejoin="round" fill="none"/><path d="M562.6 1741.96l-2.1.04v-4l2-.04z" stroke="#1071e5" stroke-width=".05" fill="#1071e5"/><path d="M713.82 1263.1l-10.28 10.93-4.45-8.13z" stroke="#1071e5" stroke-width="4" fill="#1071e5"/><path d="M800 842.5v334.26" stroke="#1071e5" stroke-width="4" stroke-linejoin="round" fill="none"/><path d="M802 842.56h-4v-2.06h4z" stroke="#1071e5" stroke-width=".05" fill="#1071e5"/><path d="M800 1193.03l-4.63-14.27h9.26z" stroke="#1071e5" stroke-width="4" fill="#1071e5"/><path d="M1040 1206a6 6 0 0 1 6-6h148a6 6 0 0 1 6 6v108a6 6 0 0 1-6 6h-148a6 6 0 0 1-6-6z" stroke="#1071e5" fill="#edf5ff"/><use xlink:href="#aj" transform="matrix(1,0,0,1,1052,1212) translate(5.746913580246904 38.77777777777778)"/><use xlink:href="#ak" transform="matrix(1,0,0,1,1052,1212) translate(3.2777777777777715 65.44444444444446)"/><use xlink:href="#al" transform="matrix(1,0,0,1,1052,1212) translate(15.62345679012345 65.44444444444446)"/><path d="M882.5 1260h134.26" stroke="#1071e5" stroke-width="4" stroke-linejoin="round" fill="none"/><path d="M882.55 1262h-2.05v-4h2.05z" stroke="#1071e5" stroke-width=".05" fill="#1071e5"/><path d="M1033.03 1260l-14.27 4.63v-9.27z" stroke="#1071e5" stroke-width="4" fill="#1071e5"/><path d="M1040 1366a6 6 0 0 1 6-6h148a6 6 0 0 1 6 6v108a6 6 0 0 1-6 6h-148a6 6 0 0 1-6-6z" stroke="#1071e5" fill="#edf5ff"/><use xlink:href="#am" transform="matrix(1,0,0,1,1052,1372) translate(10.037037037037045 53.77777777777778)"/><use xlink:href="#an" transform="matrix(1,0,0,1,1052,1372) translate(77.87654320987653 53.77777777777778)"/><path d="M1360 1206a6 6 0 0 1 6-6h148a6 6 0 0 1 6 6v108a6 6 0 0 1-6 6h-148a6 6 0 0 1-6-6z" stroke="#1071e5" fill="#edf5ff"/><use xlink:href="#ao" transform="matrix(1,0,0,1,1372,1212) translate(27.96913580246914 38.77777777777778)"/><use xlink:href="#ap" transform="matrix(1,0,0,1,1372,1212) translate(11.888888888888886 65.44444444444446)"/><path d="M1202.5 780.1l.45.05.8.12.8.16.82.2.8.22.84.26.85.32.85.36.87.4.9.48.92.54.95.6 1 .7 1.03.78 1.1.9 1.13 1.04 1.23 1.2 1.3 1.37 1.4 1.6 1.5 1.9 1.62 2.25 1.8 2.7 1.97 3.27 2.2 4.03 2.5 5.05 2.88 6.46 3.35 8.5 4 11.54 4.97 16.53 6.54 25.64 9.97 47.58 42.3 233.88 6.55 25.64 4.96 16.53 4 11.55 3.36 8.5 2.87 6.45 2.5 5.05 2.2 4.03 2 3.27 1.78 2.7 1.63 2.25 1.5 1.9.7.82" stroke="#1071e5" stroke-width="4" stroke-linejoin="round" fill="none"/><path d="M1202.6 778.04l-.1 4-2-.04v-4z" stroke="#1071e5" stroke-width=".05" fill="#1071e5"/><path d="M1353.82 1256.9l-14.73-2.8 4.44-8.13z" stroke="#1071e5" stroke-width="4" fill="#1071e5"/><path d="M882.5 1259.9l.45-.05.8-.12.8-.16.82-.2.8-.2.84-.28.85-.33.85-.35.87-.4.9-.48.92-.54.95-.6 1-.7 1.03-.78 1.1-.9 1.13-1.04 1.23-1.2 1.3-1.37 1.4-1.6 1.5-1.9 1.62-2.25 1.8-2.7 1.97-3.27 2.2-4.03 2.5-5.05 2.88-6.46 3.35-8.5 4-11.54 4.97-16.53 6.54-25.64 9.97-47.58 42.3-233.88 6.55-25.64 4.96-16.53 4-11.56 3.36-8.48 2.87-6.46 2.5-5.05 2.2-4.03 2-3.27 1.78-2.7 1.63-2.25 1.5-1.9.7-.82" stroke="#1071e5" stroke-width="4" stroke-linejoin="round" fill="none"/><path d="M882.6 1261.96l-2.1.04v-4l2-.04z" stroke="#1071e5" stroke-width=".05" fill="#1071e5"/><path d="M1033.82 783.1l-10.28 10.93-4.45-8.13z" stroke="#1071e5" stroke-width="4" fill="#1071e5"/><path d="M882.5 1260.04h.45l2.36.16 2.3.24 2.2.33 2.18.4 2.13.5 2.1.6 2.07.67 2.06.76 2.05.87 2.06.96 2.07 1.1 2.1 1.2 2.13 1.35 2.18 1.5 2.25 1.7 2.3 1.92 2.42 2.18 2.53 2.48 2.68 2.86 2.88 3.34 3.14 3.96 3.5 4.83 4.05 6.1 5 8.27 7.4 13.53 25.3 48.83 5 8.26 4.04 6.1 3.5 4.84 3.14 3.96 2.88 3.35 2.68 2.84 2.53 2.48 2.4 2.17 2.32 1.9 2.24 1.7 2.17 1.52 2.13 1.35 2.1 1.2 2.06 1.1 1.86.87" stroke="#1071e5" stroke-width="4" stroke-linejoin="round" fill="none"/><path d="M882.6 1258.04l-.1 4-2-.04v-4z" stroke="#1071e5" stroke-width=".05" fill="#1071e5"/><path d="M1033.17 1417.66l-14.92 1.6 1.92-9.08z" stroke="#1071e5" stroke-width="4" fill="#1071e5"/><path d="M1202.5 1260h134.26" stroke="#1071e5" stroke-width="4" stroke-linejoin="round" fill="none"/><path d="M1202.55 1262h-2.05v-4h2.05z" stroke="#1071e5" stroke-width=".05" fill="#1071e5"/><path d="M1353.03 1260l-14.27 4.63v-9.27z" stroke="#1071e5" stroke-width="4" fill="#1071e5"/><path d="M1202.5 1419.96h.45l2.36-.16 2.3-.24 2.2-.33 2.18-.4 2.13-.5 2.1-.6 2.07-.67 2.06-.76 2.05-.87 2.06-.96 2.07-1.1 2.1-1.2 2.13-1.35 2.18-1.5 2.25-1.7 2.3-1.92 2.42-2.18 2.53-2.48 2.68-2.86 2.88-3.34 3.14-3.96 3.5-4.83 4.05-6.1 5-8.27 7.4-13.53 25.3-48.83 5-8.26 4.04-6.1 3.5-4.84 3.14-3.96 2.88-3.35 2.68-2.84 2.53-2.48 2.4-2.17 2.32-1.9 2.24-1.7 2.17-1.52 2.13-1.35 2.1-1.2 2.06-1.1 1.86-.87" stroke="#1071e5" stroke-width="4" stroke-linejoin="round" fill="none"/><path d="M1202.6 1421.96l-2.1.04v-4l2-.04z" stroke="#1071e5" stroke-width=".05" fill="#1071e5"/><path d="M1353.17 1262.34l-13 7.48-1.92-9.07z" stroke="#1071e5" stroke-width="4" fill="#1071e5"/><path d="M1522.5 1259.86l.46-.07.6-.12.63-.15.6-.17.65-.2.64-.25.66-.27.67-.32.7-.35.72-.42.75-.48.8-.54.8-.62.87-.7.92-.84.96-.95 1.05-1.12 1.13-1.3 1.22-1.55 1.33-1.83 1.46-2.2 1.63-2.7 1.83-3.34 2.08-4.2 2.4-5.38 2.8-7.1 3.34-9.65 4.1-13.68 5.25-20.55 7.13-33.9 11.35-68.4 47.25-341.4 7.13-33.9 5.24-20.55 4.1-13.68 3.36-9.65 2.8-7.1 2.4-5.4 2.07-4.18 1.83-3.34 1.63-2.7 1.46-2.2.1-.12" stroke="#1071e5" stroke-width="4" stroke-linejoin="round" fill="none"/><path d="M1522.6 1261.96l-2.1.04v-4l2-.04z" stroke="#1071e5" stroke-width=".05" fill="#1071e5"/><path d="M1674.14 623.63l-9.2 11.85-5.2-7.67z" stroke="#1071e5" stroke-width="4" fill="#1071e5"/><path d="M1842.5 620h134.26" stroke="#1071e5" stroke-width="4" stroke-linejoin="round" fill="none"/><path d="M1842.55 622h-2.05v-4h2.05z" stroke="#1071e5" stroke-width=".05" fill="#1071e5"/><path d="M1993.03 620l-14.27 4.63v-9.26z" stroke="#1071e5" stroke-width="4" fill="#1071e5"/><path d="M2162.5 620h134.26" stroke="#008a0e" stroke-width="4" stroke-linejoin="round" fill="none"/><path d="M2162.55 622h-2.05v-4h2.05z" stroke="#008a0e" stroke-width=".05" fill="#008a0e"/><path d="M2313.03 620l-14.27 4.63v-9.26z" stroke="#008a0e" stroke-width="4" fill="#008a0e"/><path d="M2162.5 621.04h.45l2.36.16 2.3.24 2.2.33 2.18.4 2.13.5 2.1.6 2.07.67 2.06.76 2.05.87 2.06.96 2.07 1.1 2.1 1.2 2.13 1.35 2.18 1.5 2.25 1.7 2.3 1.92 2.42 2.18 2.53 2.48 2.68 2.86 2.88 3.33 3.14 3.97 3.5 4.83 4.05 6.1 5 8.27 7.4 13.53 25.3 48.83 5 8.27 4.04 6.1 3.5 4.83 3.14 3.97 2.88 3.33 2.68 2.86 2.53 2.48 2.4 2.18 2.32 1.9 2.24 1.7 2.17 1.52 2.13 1.35 2.1 1.2 2.06 1.1 1.86.87" stroke="#008a0e" stroke-width="4" stroke-linejoin="round" fill="none"/><path d="M2162.6 619.04l-.1 4-2-.04v-4z" stroke="#008a0e" stroke-width=".05" fill="#008a0e"/><path d="M2313.17 778.66l-14.92 1.6 1.92-9.08z" stroke="#008a0e" stroke-width="4" fill="#008a0e"/><path d="M2162.5 620.08l.4.02 1.17.12 1.17.17 1.15.22 1.15.27 1.15.3 1.16.4 1.18.42 1.18.5 1.2.57 1.24.64 1.27.73 1.3.82 1.34.93 1.4 1.05 1.45 1.2 1.52 1.38 1.6 1.57 1.7 1.8 1.82 2.1 1.94 2.47 2.1 2.9 2.3 3.45 2.52 4.18 2.82 5.14 3.2 6.44 3.68 8.32 4.4 11.13 5.5 15.9 7.78 25.94 39.17 148.88 5.52 15.9 4.38 11.14 3.7 8.3 3.18 6.45 2.82 5.13 2.52 4.18 2.3 3.46 2.1 2.9 1.94 2.45 1.82 2.1 1.7 1.8 1.6 1.57 1.52 1.38.26.2" stroke="#fcce14" stroke-width="4" stroke-linejoin="round" fill="none"/><path d="M2162.6 618.04l-.1 4-2-.04v-4z" stroke="#fcce14" stroke-width=".05" fill="#fcce14"/><path d="M2313.5 942.93l-14.97-1 3.44-8.6z" stroke="#fcce14" stroke-width="4" fill="#fcce14"/><path d="M2162.5 620.1l.45.05.8.12.8.16.82.2.8.22.84.26.85.32.85.36.87.4.9.48.92.54.95.6 1 .7 1.03.78 1.1.9 1.13 1.04 1.23 1.2 1.3 1.37 1.4 1.6 1.5 1.9 1.62 2.25 1.8 2.7 1.97 3.27 2.2 4.03 2.5 5.05 2.88 6.46 3.35 8.5 4 11.54 4.97 16.53 6.54 25.64 9.97 47.58 42.3 233.88 6.55 25.64 4.96 16.53 4 11.55 3.36 8.5 2.87 6.45 2.5 5.05 2.2 4.03 2 3.27 1.78 2.7 1.63 2.25 1.5 1.9.7.82" stroke="#fcce14" stroke-width="4" stroke-linejoin="round" fill="none"/><path d="M2162.6 618.04l-.1 4-2-.04v-4z" stroke="#fcce14" stroke-width=".05" fill="#fcce14"/><path d="M2313.82 1096.9l-14.73-2.8 4.44-8.13z" stroke="#fcce14" stroke-width="4" fill="#fcce14"/><path d="M2162.5 620.14l.46.07.6.12.63.15.6.17.65.2.64.25.66.27.67.32.7.35.72.42.75.48.8.54.8.62.87.7.92.84.96.95 1.05 1.12 1.13 1.3 1.22 1.55 1.33 1.83 1.46 2.2 1.63 2.7 1.83 3.34 2.08 4.2 2.4 5.38 2.8 7.1 3.34 9.65 4.1 13.68 5.25 20.55 7.13 33.9 11.35 68.4 47.25 341.4 7.13 33.9 5.24 20.55 4.1 13.68 3.36 9.65 2.8 7.1 2.4 5.4 2.07 4.18 1.83 3.34 1.63 2.7 1.46 2.2.1.12" stroke="#fcce14" stroke-width="4" stroke-linejoin="round" fill="none"/><path d="M2162.6 618.04l-.1 4-2-.04v-4z" stroke="#fcce14" stroke-width=".05" fill="#fcce14"/><path d="M2314.14 1256.37l-14.4-4.18 5.2-7.68z" stroke="#fcce14" stroke-width="4" fill="#fcce14"/><path d="M2620 266a6 6 0 0 1 6-6h188a6 6 0 0 1 6 6v1168a6 6 0 0 1-6 6h-188a6 6 0 0 1-6-6z" stroke="#3a414a" fill="#fff"/><g><use xlink:href="#aq" transform="matrix(1,0,0,1,2632,272) translate(18.339506172839506 17.77777777777778)"/><use xlink:href="#ar" transform="matrix(1,0,0,1,2632,272) translate(71.30246913580247 17.77777777777778)"/></g><path d="M2640 406a6 6 0 0 1 6-6h148a6 6 0 0 1 6 6v108a6 6 0 0 1-6 6h-148a6 6 0 0 1-6-6z" stroke="#e81313" fill="#fff0f0"/><g><use xlink:href="#as" transform="matrix(1,0,0,1,2652,412) translate(44.574074074074076 53.77777777777778)"/></g><path d="M2640 566a6 6 0 0 1 6-6h148a6 6 0 0 1 6 6v108a6 6 0 0 1-6 6h-148a6 6 0 0 1-6-6z" stroke="#e81313" fill="#fff0f0"/><g><use xlink:href="#at" transform="matrix(1,0,0,1,2652,572) translate(37.16666666666667 53.77777777777778)"/></g><defs><path fill="#3a414a" d="M30-248c118-7 216 8 213 122C240-48 200 0 122 0H30v-248zM63-27c89 8 146-16 146-99s-60-101-146-95v194" id="au"/><path fill="#3a414a" d="M141-36C126-15 110 5 73 4 37 3 15-17 15-53c-1-64 63-63 125-63 3-35-9-54-41-54-24 1-41 7-42 31l-33-3c5-37 33-52 76-52 45 0 72 20 72 64v82c-1 20 7 32 28 27v20c-31 9-61-2-59-35zM48-53c0 20 12 33 32 33 41-3 63-29 60-74-43 2-92-5-92 41" id="av"/><path fill="#3a414a" d="M59-47c-2 24 18 29 38 22v24C64 9 27 4 27-40v-127H5v-23h24l9-43h21v43h35v23H59v120" id="aw"/><g id="a"><use transform="matrix(0.06172839506172839,0,0,0.06172839506172839,0,0)" xlink:href="#au"/><use transform="matrix(0.06172839506172839,0,0,0.06172839506172839,15.987654320987653,0)" xlink:href="#av"/><use transform="matrix(0.06172839506172839,0,0,0.06172839506172839,28.333333333333332,0)" xlink:href="#aw"/><use transform="matrix(0.06172839506172839,0,0,0.06172839506172839,34.50617283950617,0)" xlink:href="#av"/></g><path fill="#3a414a" d="M185-189c-5-48-123-54-124 2 14 75 158 14 163 119 3 78-121 87-175 55-17-10-28-26-33-46l33-7c5 56 141 63 141-1 0-78-155-14-162-118-5-82 145-84 179-34 5 7 8 16 11 25" id="ax"/><path fill="#3a414a" d="M100-194c62-1 85 37 85 99 1 63-27 99-86 99S16-35 15-95c0-66 28-99 85-99zM99-20c44 1 53-31 53-75 0-43-8-75-51-75s-53 32-53 75 10 74 51 75" id="ay"/><path fill="#3a414a" d="M84 4C-5 8 30-112 23-190h32v120c0 31 7 50 39 49 72-2 45-101 50-169h31l1 190h-30c-1-10 1-25-2-33-11 22-28 36-60 37" id="az"/><path fill="#3a414a" d="M114-163C36-179 61-72 57 0H25l-1-190h30c1 12-1 29 2 39 6-27 23-49 58-41v29" id="aA"/><path fill="#3a414a" d="M96-169c-40 0-48 33-48 73s9 75 48 75c24 0 41-14 43-38l32 2c-6 37-31 61-74 61-59 0-76-41-82-99-10-93 101-131 147-64 4 7 5 14 7 22l-32 3c-4-21-16-35-41-35" id="aB"/><path fill="#3a414a" d="M100-194c63 0 86 42 84 106H49c0 40 14 67 53 68 26 1 43-12 49-29l28 8c-11 28-37 45-77 45C44 4 14-33 15-96c1-61 26-98 85-98zm52 81c6-60-76-77-97-28-3 7-6 17-6 28h103" id="aC"/><path fill="#3a414a" d="M135-143c-3-34-86-38-87 0 15 53 115 12 119 90S17 21 10-45l28-5c4 36 97 45 98 0-10-56-113-15-118-90-4-57 82-63 122-42 12 7 21 19 24 35" id="aD"/><g id="b"><use transform="matrix(0.06172839506172839,0,0,0.06172839506172839,0,0)" xlink:href="#ax"/><use transform="matrix(0.06172839506172839,0,0,0.06172839506172839,14.814814814814813,0)" xlink:href="#ay"/><use transform="matrix(0.06172839506172839,0,0,0.06172839506172839,27.160493827160494,0)" xlink:href="#az"/><use transform="matrix(0.06172839506172839,0,0,0.06172839506172839,39.50617283950617,0)" xlink:href="#aA"/><use transform="matrix(0.06172839506172839,0,0,0.06172839506172839,46.85185185185185,0)" xlink:href="#aB"/><use transform="matrix(0.06172839506172839,0,0,0.06172839506172839,57.96296296296296,0)" xlink:href="#aC"/><use transform="matrix(0.06172839506172839,0,0,0.06172839506172839,70.30864197530865,0)" xlink:href="#aD"/></g><g id="c"><use transform="matrix(0.06172839506172839,0,0,0.06172839506172839,0,0)" xlink:href="#ax"/><use transform="matrix(0.06172839506172839,0,0,0.06172839506172839,14.814814814814813,0)" xlink:href="#aw"/><use transform="matrix(0.06172839506172839,0,0,0.06172839506172839,20.98765432098765,0)" xlink:href="#aA"/><use transform="matrix(0.06172839506172839,0,0,0.06172839506172839,28.33333333333333,0)" xlink:href="#az"/><use transform="matrix(0.06172839506172839,0,0,0.06172839506172839,40.679012345679006,0)" xlink:href="#aB"/><use transform="matrix(0.06172839506172839,0,0,0.06172839506172839,51.79012345679011,0)" xlink:href="#aw"/><use transform="matrix(0.06172839506172839,0,0,0.06172839506172839,57.962962962962955,0)" xlink:href="#az"/><use transform="matrix(0.06172839506172839,0,0,0.06172839506172839,70.30864197530863,0)" xlink:href="#aA"/><use transform="matrix(0.06172839506172839,0,0,0.06172839506172839,77.65432098765432,0)" xlink:href="#aC"/></g><path fill="#3a414a" d="M233-177c-1 41-23 64-60 70L243 0h-38l-65-103H63V0H30v-248c88 3 205-21 203 71zM63-129c60-2 137 13 137-47 0-61-80-42-137-45v92" id="aE"/><path fill="#3a414a" d="M24-231v-30h32v30H24zM24 0v-190h32V0H24" id="aF"/><path fill="#3a414a" d="M108 0H70L1-190h34L89-25l56-165h34" id="aG"/><path fill="#3a414a" d="M24 0v-261h32V0H24" id="aH"/><g id="d"><use transform="matrix(0.06172839506172839,0,0,0.06172839506172839,0,0)" xlink:href="#aE"/><use transform="matrix(0.06172839506172839,0,0,0.06172839506172839,15.987654320987653,0)" xlink:href="#aC"/><use transform="matrix(0.06172839506172839,0,0,0.06172839506172839,28.333333333333332,0)" xlink:href="#aw"/><use transform="matrix(0.06172839506172839,0,0,0.06172839506172839,34.50617283950617,0)" xlink:href="#aA"/><use transform="matrix(0.06172839506172839,0,0,0.06172839506172839,41.85185185185185,0)" xlink:href="#aF"/><use transform="matrix(0.06172839506172839,0,0,0.06172839506172839,46.72839506172839,0)" xlink:href="#aC"/><use transform="matrix(0.06172839506172839,0,0,0.06172839506172839,59.07407407407407,0)" xlink:href="#aG"/><use transform="matrix(0.06172839506172839,0,0,0.06172839506172839,70.18518518518518,0)" xlink:href="#av"/><use transform="matrix(0.06172839506172839,0,0,0.06172839506172839,82.53086419753086,0)" xlink:href="#aH"/></g><path fill="#3a414a" d="M240 0l2-218c-23 76-54 145-80 218h-23L58-218 59 0H30v-248h44l77 211c21-75 51-140 76-211h43V0h-30" id="aI"/><path fill="#3a414a" d="M106-169C34-169 62-67 57 0H25v-261h32l-1 103c12-21 28-36 61-36 89 0 53 116 60 194h-32v-121c2-32-8-49-39-48" id="aJ"/><path fill="#3a414a" d="M85-194c31 0 48 13 60 33l-1-100h32l1 261h-30c-2-10 0-23-3-31C134-8 116 4 85 4 32 4 16-35 15-94c0-66 23-100 70-100zm9 24c-40 0-46 34-46 75 0 40 6 74 45 74 42 0 51-32 51-76 0-42-9-74-50-73" id="aK"/><g id="e"><use transform="matrix(0.06172839506172839,0,0,0.06172839506172839,0,0)" xlink:href="#aI"/><use transform="matrix(0.06172839506172839,0,0,0.06172839506172839,18.456790123456788,0)" xlink:href="#aC"/><use transform="matrix(0.06172839506172839,0,0,0.06172839506172839,30.80246913580247,0)" xlink:href="#aw"/><use transform="matrix(0.06172839506172839,0,0,0.06172839506172839,36.97530864197531,0)" xlink:href="#aJ"/><use transform="matrix(0.06172839506172839,0,0,0.06172839506172839,49.32098765432099,0)" xlink:href="#ay"/><use transform="matrix(0.06172839506172839,0,0,0.06172839506172839,61.666666666666664,0)" xlink:href="#aK"/><use transform="matrix(0.06172839506172839,0,0,0.06172839506172839,74.01234567901234,0)" xlink:href="#aD"/></g><g id="f"><use transform="matrix(0.06172839506172839,0,0,0.06172839506172839,0,0)" xlink:href="#aI"/><use transform="matrix(0.06172839506172839,0,0,0.06172839506172839,18.456790123456788,0)" xlink:href="#ay"/><use transform="matrix(0.06172839506172839,0,0,0.06172839506172839,30.80246913580247,0)" xlink:href="#aK"/><use transform="matrix(0.06172839506172839,0,0,0.06172839506172839,43.148148148148145,0)" xlink:href="#aC"/><use transform="matrix(0.06172839506172839,0,0,0.06172839506172839,55.49382716049382,0)" xlink:href="#aH"/><use transform="matrix(0.06172839506172839,0,0,0.06172839506172839,60.37037037037037,0)" xlink:href="#aD"/></g><path fill="#3a414a" d="M205 0l-28-72H64L36 0H1l101-248h38L239 0h-34zm-38-99l-47-123c-12 45-31 82-46 123h93" id="aL"/><path fill="#3a414a" d="M115-194c55 1 70 41 70 98S169 2 115 4C84 4 66-9 55-30l1 105H24l-1-265h31l2 30c10-21 28-34 59-34zm-8 174c40 0 45-34 45-75s-6-73-45-74c-42 0-51 32-51 76 0 43 10 73 51 73" id="aM"/><path fill="#3a414a" d="M117-194c89-4 53 116 60 194h-32v-121c0-31-8-49-39-48C34-167 62-67 57 0H25l-1-190h30c1 10-1 24 2 32 11-22 29-35 61-36" id="aN"/><g id="g"><use transform="matrix(0.06172839506172839,0,0,0.06172839506172839,0,0)" xlink:href="#aL"/><use transform="matrix(0.06172839506172839,0,0,0.06172839506172839,14.814814814814813,0)" xlink:href="#aK"/><use transform="matrix(0.06172839506172839,0,0,0.06172839506172839,27.160493827160494,0)" xlink:href="#av"/><use transform="matrix(0.06172839506172839,0,0,0.06172839506172839,39.50617283950617,0)" xlink:href="#aM"/><use transform="matrix(0.06172839506172839,0,0,0.06172839506172839,51.85185185185185,0)" xlink:href="#aw"/><use transform="matrix(0.06172839506172839,0,0,0.06172839506172839,58.02469135802469,0)" xlink:href="#av"/><use transform="matrix(0.06172839506172839,0,0,0.06172839506172839,70.37037037037037,0)" xlink:href="#aw"/><use transform="matrix(0.06172839506172839,0,0,0.06172839506172839,76.5432098765432,0)" xlink:href="#aF"/><use transform="matrix(0.06172839506172839,0,0,0.06172839506172839,81.41975308641975,0)" xlink:href="#ay"/><use transform="matrix(0.06172839506172839,0,0,0.06172839506172839,93.76543209876543,0)" xlink:href="#aN"/></g><path fill="#3a414a" d="M127-220V0H93v-220H8v-28h204v28h-85" id="aO"/><path fill="#3a414a" d="M143 0L79-87 56-68V0H24v-261h32v163l83-92h37l-77 82L181 0h-38" id="aP"/><g id="h"><use transform="matrix(0.06172839506172839,0,0,0.06172839506172839,0,0)" xlink:href="#aO"/><use transform="matrix(0.06172839506172839,0,0,0.06172839506172839,11.049382716049381,0)" xlink:href="#av"/><use transform="matrix(0.06172839506172839,0,0,0.06172839506172839,23.39506172839506,0)" xlink:href="#aD"/><use transform="matrix(0.06172839506172839,0,0,0.06172839506172839,34.50617283950617,0)" xlink:href="#aP"/><use transform="matrix(0.06172839506172839,0,0,0.06172839506172839,45.61728395061728,0)" xlink:href="#aD"/></g><path fill="#3a414a" d="M140-251c81 0 123 46 123 126C263-46 219 4 140 4 59 4 17-45 17-125s42-126 123-126zm0 227c63 0 89-41 89-101s-29-99-89-99c-61 0-89 39-89 99S79-25 140-24" id="aQ"/><path fill="#3a414a" d="M194 0L95-120 63-95V0H30v-248h33v124l119-124h40L117-140 236 0h-42" id="aR"/><path fill="#3a414a" d="M160-131c35 5 61 23 61 61C221 17 115-2 30 0v-248c76 3 177-17 177 60 0 33-19 50-47 57zm-97-11c50-1 110 9 110-42 0-47-63-36-110-37v79zm0 115c55-2 124 14 124-45 0-56-70-42-124-44v89" id="aS"/><g id="i"><use transform="matrix(0.06172839506172839,0,0,0.06172839506172839,0,0)" xlink:href="#aQ"/><use transform="matrix(0.06172839506172839,0,0,0.06172839506172839,17.28395061728395,0)" xlink:href="#aN"/><use transform="matrix(0.06172839506172839,0,0,0.06172839506172839,29.629629629629626,0)" xlink:href="#aB"/><use transform="matrix(0.06172839506172839,0,0,0.06172839506172839,40.74074074074073,0)" xlink:href="#ay"/><use transform="matrix(0.06172839506172839,0,0,0.06172839506172839,53.08641975308641,0)" xlink:href="#aR"/><use transform="matrix(0.06172839506172839,0,0,0.06172839506172839,67.90123456790123,0)" xlink:href="#aS"/></g><path fill="#3a414a" d="M143 4C61 4 22-44 18-125c-5-107 100-154 193-111 17 8 29 25 37 43l-32 9c-13-25-37-40-76-40-61 0-88 39-88 99 0 61 29 100 91 101 35 0 62-11 79-27v-45h-74v-28h105v86C228-13 192 4 143 4" id="aT"/><g id="j"><use transform="matrix(0.06172839506172839,0,0,0.06172839506172839,0,0)" xlink:href="#aQ"/><use transform="matrix(0.06172839506172839,0,0,0.06172839506172839,17.28395061728395,0)" xlink:href="#aN"/><use transform="matrix(0.06172839506172839,0,0,0.06172839506172839,29.629629629629626,0)" xlink:href="#aB"/><use transform="matrix(0.06172839506172839,0,0,0.06172839506172839,40.74074074074073,0)" xlink:href="#ay"/><use transform="matrix(0.06172839506172839,0,0,0.06172839506172839,53.08641975308641,0)" xlink:href="#aR"/><use transform="matrix(0.06172839506172839,0,0,0.06172839506172839,67.90123456790123,0)" xlink:href="#aT"/></g><path fill="#3a414a" d="M101-234c-31-9-42 10-38 44h38v23H63V0H32v-167H5v-23h27c-7-52 17-82 69-68v24" id="aU"/><g id="k"><use transform="matrix(0.06172839506172839,0,0,0.06172839506172839,0,0)" xlink:href="#aA"/><use transform="matrix(0.06172839506172839,0,0,0.06172839506172839,7.345679012345679,0)" xlink:href="#aK"/><use transform="matrix(0.06172839506172839,0,0,0.06172839506172839,19.691358024691358,0)" xlink:href="#aU"/></g><g id="l"><use transform="matrix(0.06172839506172839,0,0,0.06172839506172839,0,0)" xlink:href="#az"/><use transform="matrix(0.06172839506172839,0,0,0.06172839506172839,12.345679012345679,0)" xlink:href="#aA"/><use transform="matrix(0.06172839506172839,0,0,0.06172839506172839,19.691358024691358,0)" xlink:href="#aH"/><use transform="matrix(0.06172839506172839,0,0,0.06172839506172839,24.5679012345679,0)" xlink:href="#aD"/></g><g id="m"><use transform="matrix(0.06172839506172839,0,0,0.06172839506172839,0,0)" xlink:href="#av"/><use transform="matrix(0.06172839506172839,0,0,0.06172839506172839,12.345679012345679,0)" xlink:href="#aN"/><use transform="matrix(0.06172839506172839,0,0,0.06172839506172839,24.691358024691358,0)" xlink:href="#aK"/></g><g id="n"><use transform="matrix(0.06172839506172839,0,0,0.06172839506172839,0,0)" xlink:href="#aF"/><use transform="matrix(0.06172839506172839,0,0,0.06172839506172839,4.876543209876543,0)" xlink:href="#aK"/><use transform="matrix(0.06172839506172839,0,0,0.06172839506172839,17.22222222222222,0)" xlink:href="#aD"/></g><g id="o"><use transform="matrix(0.06172839506172839,0,0,0.06172839506172839,0,0)" xlink:href="#aR"/><use transform="matrix(0.06172839506172839,0,0,0.06172839506172839,14.814814814814813,0)" xlink:href="#aT"/></g><path fill="#3a414a" d="M9 0v-24l116-142H16v-24h144v24L44-24h123V0H9" id="aV"/><g id="p"><use transform="matrix(0.06172839506172839,0,0,0.06172839506172839,0,0)" xlink:href="#aH"/><use transform="matrix(0.06172839506172839,0,0,0.06172839506172839,4.876543209876543,0)" xlink:href="#aF"/><use transform="matrix(0.06172839506172839,0,0,0.06172839506172839,9.753086419753085,0)" xlink:href="#aN"/><use transform="matrix(0.06172839506172839,0,0,0.06172839506172839,22.098765432098766,0)" xlink:href="#aC"/><use transform="matrix(0.06172839506172839,0,0,0.06172839506172839,34.44444444444444,0)" xlink:href="#av"/><use transform="matrix(0.06172839506172839,0,0,0.06172839506172839,46.79012345679012,0)" xlink:href="#aA"/><use transform="matrix(0.06172839506172839,0,0,0.06172839506172839,54.1358024691358,0)" xlink:href="#aF"/><use transform="matrix(0.06172839506172839,0,0,0.06172839506172839,59.01234567901234,0)" xlink:href="#aV"/><use transform="matrix(0.06172839506172839,0,0,0.06172839506172839,70.12345679012346,0)" xlink:href="#av"/><use transform="matrix(0.06172839506172839,0,0,0.06172839506172839,82.46913580246914,0)" xlink:href="#aw"/><use transform="matrix(0.06172839506172839,0,0,0.06172839506172839,88.64197530864197,0)" xlink:href="#aF"/><use transform="matrix(0.06172839506172839,0,0,0.06172839506172839,93.51851851851852,0)" xlink:href="#ay"/><use transform="matrix(0.06172839506172839,0,0,0.06172839506172839,105.8641975308642,0)" xlink:href="#aN"/></g><path fill="#3a414a" d="M30 0v-248h33v221h125V0H30" id="aW"/><path fill="#3a414a" d="M210-169c-67 3-38 105-44 169h-31v-121c0-29-5-50-35-48C34-165 62-65 56 0H25l-1-190h30c1 10-1 24 2 32 10-44 99-50 107 0 11-21 27-35 58-36 85-2 47 119 55 194h-31v-121c0-29-5-49-35-48" id="aX"/><path fill="#3a414a" d="M16-82v-28h88v28H16" id="aY"/><path fill="#3a414a" d="M64 0c3-98 48-159 88-221H18v-27h164v26C143-157 98-101 97 0H64" id="aZ"/><g id="q"><use transform="matrix(0.06172839506172839,0,0,0.06172839506172839,0,0)" xlink:href="#aW"/><use transform="matrix(0.06172839506172839,0,0,0.06172839506172839,12.345679012345679,0)" xlink:href="#aH"/><use transform="matrix(0.06172839506172839,0,0,0.06172839506172839,17.22222222222222,0)" xlink:href="#av"/><use transform="matrix(0.06172839506172839,0,0,0.06172839506172839,29.5679012345679,0)" xlink:href="#aX"/><use transform="matrix(0.06172839506172839,0,0,0.06172839506172839,48.02469135802468,0)" xlink:href="#av"/><use transform="matrix(0.06172839506172839,0,0,0.06172839506172839,60.37037037037036,0)" xlink:href="#aY"/><use transform="matrix(0.06172839506172839,0,0,0.06172839506172839,67.71604938271604,0)" xlink:href="#aZ"/><use transform="matrix(0.06172839506172839,0,0,0.06172839506172839,80.06172839506172,0)" xlink:href="#aS"/></g><path fill="#3a414a" d="M101-251c82-7 93 87 43 132L82-64C71-53 59-42 53-27h129V0H18c2-99 128-94 128-182 0-28-16-43-45-43s-46 15-49 41l-32-3c6-41 34-60 81-64" id="ba"/><g id="r"><use transform="matrix(0.06172839506172839,0,0,0.06172839506172839,0,0)" xlink:href="#aW"/><use transform="matrix(0.06172839506172839,0,0,0.06172839506172839,12.345679012345679,0)" xlink:href="#aH"/><use transform="matrix(0.06172839506172839,0,0,0.06172839506172839,17.22222222222222,0)" xlink:href="#av"/><use transform="matrix(0.06172839506172839,0,0,0.06172839506172839,29.5679012345679,0)" xlink:href="#aX"/><use transform="matrix(0.06172839506172839,0,0,0.06172839506172839,48.02469135802468,0)" xlink:href="#av"/><use transform="matrix(0.06172839506172839,0,0,0.06172839506172839,60.37037037037036,0)" xlink:href="#aY"/><use transform="matrix(0.06172839506172839,0,0,0.06172839506172839,67.71604938271604,0)" xlink:href="#ba"/><use transform="matrix(0.06172839506172839,0,0,0.06172839506172839,80.06172839506172,0)" xlink:href="#aY"/><use transform="matrix(0.06172839506172839,0,0,0.06172839506172839,87.4074074074074,0)" xlink:href="#aZ"/><use transform="matrix(0.06172839506172839,0,0,0.06172839506172839,99.75308641975309,0)" xlink:href="#aS"/></g><g id="s"><use transform="matrix(0.06172839506172839,0,0,0.06172839506172839,0,0)" xlink:href="#aW"/><use transform="matrix(0.06172839506172839,0,0,0.06172839506172839,12.345679012345679,0)" xlink:href="#ay"/><use transform="matrix(0.06172839506172839,0,0,0.06172839506172839,24.691358024691358,0)" xlink:href="#aE"/><use transform="matrix(0.06172839506172839,0,0,0.06172839506172839,40.67901234567901,0)" xlink:href="#aL"/></g><path fill="#3a414a" d="M190 0L58-211 59 0H30v-248h39L202-35l-2-213h31V0h-41" id="bb"/><path fill="#3a414a" d="M141 0L90-78 38 0H4l68-98-65-92h35l48 74 47-74h35l-64 92 68 98h-35" id="bc"/><g id="t"><use transform="matrix(0.06172839506172839,0,0,0.06172839506172839,0,0)" xlink:href="#bb"/><use transform="matrix(0.06172839506172839,0,0,0.06172839506172839,15.987654320987653,0)" xlink:href="#aC"/><use transform="matrix(0.06172839506172839,0,0,0.06172839506172839,28.333333333333332,0)" xlink:href="#bc"/><use transform="matrix(0.06172839506172839,0,0,0.06172839506172839,39.44444444444444,0)" xlink:href="#aw"/></g><g id="u"><use transform="matrix(0.06172839506172839,0,0,0.06172839506172839,0,0)" xlink:href="#aO"/><use transform="matrix(0.06172839506172839,0,0,0.06172839506172839,11.049382716049381,0)" xlink:href="#ay"/><use transform="matrix(0.06172839506172839,0,0,0.06172839506172839,23.39506172839506,0)" xlink:href="#aP"/><use transform="matrix(0.06172839506172839,0,0,0.06172839506172839,34.50617283950617,0)" xlink:href="#aC"/><use transform="matrix(0.06172839506172839,0,0,0.06172839506172839,46.85185185185185,0)" xlink:href="#aN"/></g><path fill="#3a414a" d="M30-248c87 1 191-15 191 75 0 78-77 80-158 76V0H30v-248zm33 125c57 0 124 11 124-50 0-59-68-47-124-48v98" id="bd"/><g id="v"><use transform="matrix(0.06172839506172839,0,0,0.06172839506172839,0,0)" xlink:href="#bd"/><use transform="matrix(0.06172839506172839,0,0,0.06172839506172839,14.814814814814813,0)" xlink:href="#aA"/><use transform="matrix(0.06172839506172839,0,0,0.06172839506172839,22.160493827160494,0)" xlink:href="#aC"/><use transform="matrix(0.06172839506172839,0,0,0.06172839506172839,34.50617283950617,0)" xlink:href="#aK"/><use transform="matrix(0.06172839506172839,0,0,0.06172839506172839,46.85185185185185,0)" xlink:href="#aF"/><use transform="matrix(0.06172839506172839,0,0,0.06172839506172839,51.72839506172839,0)" xlink:href="#aB"/><use transform="matrix(0.06172839506172839,0,0,0.06172839506172839,62.839506172839506,0)" xlink:href="#aw"/><use transform="matrix(0.06172839506172839,0,0,0.06172839506172839,69.01234567901234,0)" xlink:href="#aF"/><use transform="matrix(0.06172839506172839,0,0,0.06172839506172839,73.88888888888889,0)" xlink:href="#ay"/><use transform="matrix(0.06172839506172839,0,0,0.06172839506172839,86.23456790123457,0)" xlink:href="#aN"/></g><path fill="#3a414a" d="M33 0v-248h34V0H33" id="be"/><g id="w"><use transform="matrix(0.06172839506172839,0,0,0.06172839506172839,0,0)" xlink:href="#be"/><use transform="matrix(0.06172839506172839,0,0,0.06172839506172839,6.172839506172839,0)" xlink:href="#aN"/><use transform="matrix(0.06172839506172839,0,0,0.06172839506172839,18.51851851851852,0)" xlink:href="#aD"/><use transform="matrix(0.06172839506172839,0,0,0.06172839506172839,29.62962962962963,0)" xlink:href="#aw"/><use transform="matrix(0.06172839506172839,0,0,0.06172839506172839,35.80246913580247,0)" xlink:href="#aA"/><use transform="matrix(0.06172839506172839,0,0,0.06172839506172839,43.148148148148145,0)" xlink:href="#az"/><use transform="matrix(0.06172839506172839,0,0,0.06172839506172839,55.49382716049382,0)" xlink:href="#aB"/><use transform="matrix(0.06172839506172839,0,0,0.06172839506172839,66.60493827160494,0)" xlink:href="#aw"/><use transform="matrix(0.06172839506172839,0,0,0.06172839506172839,72.77777777777777,0)" xlink:href="#aF"/><use transform="matrix(0.06172839506172839,0,0,0.06172839506172839,77.65432098765432,0)" xlink:href="#ay"/><use transform="matrix(0.06172839506172839,0,0,0.06172839506172839,90,0)" xlink:href="#aN"/></g><g id="x"><use transform="matrix(0.06172839506172839,0,0,0.06172839506172839,0,0)" xlink:href="#aI"/><use transform="matrix(0.06172839506172839,0,0,0.06172839506172839,18.456790123456788,0)" xlink:href="#aC"/><use transform="matrix(0.06172839506172839,0,0,0.06172839506172839,30.80246913580247,0)" xlink:href="#aw"/><use transform="matrix(0.06172839506172839,0,0,0.06172839506172839,36.97530864197531,0)" xlink:href="#aA"/><use transform="matrix(0.06172839506172839,0,0,0.06172839506172839,44.32098765432099,0)" xlink:href="#aF"/><use transform="matrix(0.06172839506172839,0,0,0.06172839506172839,49.19753086419753,0)" xlink:href="#aB"/><use transform="matrix(0.06172839506172839,0,0,0.06172839506172839,60.308641975308646,0)" xlink:href="#aD"/></g><path fill="#3a414a" d="M30 0v-248h187v28H63v79h144v27H63v87h162V0H30" id="bf"/><path fill="#3a414a" d="M232-93c-1 65-40 97-104 97C67 4 28-28 28-90v-158h33c8 89-33 224 67 224 102 0 64-133 71-224h33v155" id="bg"/><g id="y"><use transform="matrix(0.06172839506172839,0,0,0.06172839506172839,0,0)" xlink:href="#aS"/><use transform="matrix(0.06172839506172839,0,0,0.06172839506172839,14.814814814814813,0)" xlink:href="#aW"/><use transform="matrix(0.06172839506172839,0,0,0.06172839506172839,27.160493827160494,0)" xlink:href="#bf"/><use transform="matrix(0.06172839506172839,0,0,0.06172839506172839,41.9753086419753,0)" xlink:href="#bg"/></g><g id="z"><use transform="matrix(0.06172839506172839,0,0,0.06172839506172839,0,0)" xlink:href="#aE"/><use transform="matrix(0.06172839506172839,0,0,0.06172839506172839,15.987654320987653,0)" xlink:href="#aQ"/><use transform="matrix(0.06172839506172839,0,0,0.06172839506172839,33.2716049382716,0)" xlink:href="#bg"/><use transform="matrix(0.06172839506172839,0,0,0.06172839506172839,49.25925925925925,0)" xlink:href="#aT"/><use transform="matrix(0.06172839506172839,0,0,0.06172839506172839,66.5432098765432,0)" xlink:href="#bf"/><use transform="matrix(0.06172839506172839,0,0,0.06172839506172839,81.35802469135801,0)" xlink:href="#aY"/><use transform="matrix(0.06172839506172839,0,0,0.06172839506172839,88.7037037037037,0)" xlink:href="#aW"/></g><path fill="#3a414a" d="M137 0h-34L2-248h35l83 218 83-218h36" id="bh"/><path fill="#3a414a" d="M101-251c68 0 85 55 85 127S166 4 100 4C33 4 14-52 14-124c0-73 17-127 87-127zm-1 229c47 0 54-49 54-102s-4-102-53-102c-51 0-55 48-55 102 0 53 5 102 54 102" id="bi"/><g id="A"><use transform="matrix(0.06172839506172839,0,0,0.06172839506172839,0,0)" xlink:href="#bh"/><use transform="matrix(0.06172839506172839,0,0,0.06172839506172839,14.814814814814813,0)" xlink:href="#bi"/></g><path fill="#3a414a" d="M27 0v-27h64v-190l-56 39v-29l58-41h29v221h61V0H27" id="bj"/><g id="B"><use transform="matrix(0.06172839506172839,0,0,0.06172839506172839,0,0)" xlink:href="#bh"/><use transform="matrix(0.06172839506172839,0,0,0.06172839506172839,14.814814814814813,0)" xlink:href="#bj"/></g><g id="C"><use transform="matrix(0.06172839506172839,0,0,0.06172839506172839,0,0)" xlink:href="#bh"/><use transform="matrix(0.06172839506172839,0,0,0.06172839506172839,13.580246913580245,0)" xlink:href="#aC"/><use transform="matrix(0.06172839506172839,0,0,0.06172839506172839,25.925925925925924,0)" xlink:href="#aB"/><use transform="matrix(0.06172839506172839,0,0,0.06172839506172839,37.03703703703704,0)" xlink:href="#aw"/><use transform="matrix(0.06172839506172839,0,0,0.06172839506172839,43.20987654320988,0)" xlink:href="#ay"/><use transform="matrix(0.06172839506172839,0,0,0.06172839506172839,55.55555555555556,0)" xlink:href="#aA"/></g><path fill="#3a414a" d="M115-194c53 0 69 39 70 98 0 66-23 100-70 100C84 3 66-7 56-30L54 0H23l1-261h32v101c10-23 28-34 59-34zm-8 174c40 0 45-34 45-75 0-40-5-75-45-74-42 0-51 32-51 76 0 43 10 73 51 73" id="bk"/><path fill="#3a414a" d="M177-190C167-65 218 103 67 71c-23-6-38-20-44-43l32-5c15 47 100 32 89-28v-30C133-14 115 1 83 1 29 1 15-40 15-95c0-56 16-97 71-98 29-1 48 16 59 35 1-10 0-23 2-32h30zM94-22c36 0 50-32 50-73 0-42-14-75-50-75-39 0-46 34-46 75s6 73 46 73" id="bl"/><g id="D"><use transform="matrix(0.06172839506172839,0,0,0.06172839506172839,0,0)" xlink:href="#bf"/><use transform="matrix(0.06172839506172839,0,0,0.06172839506172839,14.814814814814813,0)" xlink:href="#aX"/><use transform="matrix(0.06172839506172839,0,0,0.06172839506172839,33.2716049382716,0)" xlink:href="#bk"/><use transform="matrix(0.06172839506172839,0,0,0.06172839506172839,45.61728395061728,0)" xlink:href="#aC"/><use transform="matrix(0.06172839506172839,0,0,0.06172839506172839,57.962962962962955,0)" xlink:href="#aK"/><use transform="matrix(0.06172839506172839,0,0,0.06172839506172839,70.30864197530863,0)" xlink:href="#aK"/><use transform="matrix(0.06172839506172839,0,0,0.06172839506172839,82.65432098765432,0)" xlink:href="#aF"/><use transform="matrix(0.06172839506172839,0,0,0.06172839506172839,87.53086419753086,0)" xlink:href="#aN"/><use transform="matrix(0.06172839506172839,0,0,0.06172839506172839,99.87654320987654,0)" xlink:href="#bl"/><use transform="matrix(0.06172839506172839,0,0,0.06172839506172839,112.22222222222223,0)" xlink:href="#aD"/></g><path d="M205 0l-28-72H64L36 0H1l101-248h38L239 0h-34zm-38-99l-47-123c-12 45-31 82-46 123h93" id="bm"/><path d="M135-143c-3-34-86-38-87 0 15 53 115 12 119 90S17 21 10-45l28-5c4 36 97 45 98 0-10-56-113-15-118-90-4-57 82-63 122-42 12 7 21 19 24 35" id="bn"/><path d="M96-169c-40 0-48 33-48 73s9 75 48 75c24 0 41-14 43-38l32 2c-6 37-31 61-74 61-59 0-76-41-82-99-10-93 101-131 147-64 4 7 5 14 7 22l-32 3c-4-21-16-35-41-35" id="bo"/><path d="M24 0v-261h32V0H24" id="bp"/><path d="M100-194c63 0 86 42 84 106H49c0 40 14 67 53 68 26 1 43-12 49-29l28 8c-11 28-37 45-77 45C44 4 14-33 15-96c1-61 26-98 85-98zm52 81c6-60-76-77-97-28-3 7-6 17-6 28h103" id="bq"/><path d="M115-194c55 1 70 41 70 98S169 2 115 4C84 4 66-9 55-30l1 105H24l-1-265h31l2 30c10-21 28-34 59-34zm-8 174c40 0 45-34 45-75s-6-73-45-74c-42 0-51 32-51 76 0 43 10 73 51 73" id="br"/><path d="M24-231v-30h32v30H24zM24 0v-190h32V0H24" id="bs"/><path d="M84 4C-5 8 30-112 23-190h32v120c0 31 7 50 39 49 72-2 45-101 50-169h31l1 190h-30c-1-10 1-25-2-33-11 22-28 36-60 37" id="bt"/><g id="E"><use transform="matrix(0.05925925925925927,0,0,0.05925925925925927,0,0)" xlink:href="#bm"/><use transform="matrix(0.05925925925925927,0,0,0.05925925925925927,14.222222222222225,0)" xlink:href="#bn"/><use transform="matrix(0.05925925925925927,0,0,0.05925925925925927,24.888888888888893,0)" xlink:href="#bo"/><use transform="matrix(0.05925925925925927,0,0,0.05925925925925927,35.55555555555556,0)" xlink:href="#bp"/><use transform="matrix(0.05925925925925927,0,0,0.05925925925925927,40.23703703703704,0)" xlink:href="#bq"/><use transform="matrix(0.05925925925925927,0,0,0.05925925925925927,52.088888888888896,0)" xlink:href="#br"/><use transform="matrix(0.05925925925925927,0,0,0.05925925925925927,63.94074074074075,0)" xlink:href="#bs"/><use transform="matrix(0.05925925925925927,0,0,0.05925925925925927,68.62222222222223,0)" xlink:href="#bt"/><use transform="matrix(0.05925925925925927,0,0,0.05925925925925927,80.47407407407408,0)" xlink:href="#bn"/></g><g id="F"><use transform="matrix(0.06172839506172839,0,0,0.06172839506172839,0,0)" xlink:href="#bk"/><use transform="matrix(0.06172839506172839,0,0,0.06172839506172839,12.345679012345679,0)" xlink:href="#bl"/><use transform="matrix(0.06172839506172839,0,0,0.06172839506172839,24.691358024691358,0)" xlink:href="#aC"/></g><path fill="#3a414a" d="M33 0v-38h34V0H33" id="bu"/><path fill="#3a414a" d="M54-142c48-35 137-8 131 61C196 18 31 33 14-55l32-4c7 23 22 37 52 37 35-1 51-22 54-58 4-55-73-65-99-34H22l8-134h141v27H59" id="bv"/><g id="G"><use transform="matrix(0.06172839506172839,0,0,0.06172839506172839,0,0)" xlink:href="#aH"/><use transform="matrix(0.06172839506172839,0,0,0.06172839506172839,4.876543209876543,0)" xlink:href="#av"/><use transform="matrix(0.06172839506172839,0,0,0.06172839506172839,17.22222222222222,0)" xlink:href="#aA"/><use transform="matrix(0.06172839506172839,0,0,0.06172839506172839,24.5679012345679,0)" xlink:href="#bl"/><use transform="matrix(0.06172839506172839,0,0,0.06172839506172839,36.913580246913575,0)" xlink:href="#aC"/><use transform="matrix(0.06172839506172839,0,0,0.06172839506172839,49.25925925925925,0)" xlink:href="#aY"/><use transform="matrix(0.06172839506172839,0,0,0.06172839506172839,56.60493827160493,0)" xlink:href="#aC"/><use transform="matrix(0.06172839506172839,0,0,0.06172839506172839,68.9506172839506,0)" xlink:href="#aN"/><use transform="matrix(0.06172839506172839,0,0,0.06172839506172839,81.29629629629629,0)" xlink:href="#aY"/><use transform="matrix(0.06172839506172839,0,0,0.06172839506172839,88.64197530864197,0)" xlink:href="#aG"/><use transform="matrix(0.06172839506172839,0,0,0.06172839506172839,99.75308641975309,0)" xlink:href="#bj"/><use transform="matrix(0.06172839506172839,0,0,0.06172839506172839,112.09876543209877,0)" xlink:href="#bu"/><use transform="matrix(0.06172839506172839,0,0,0.06172839506172839,118.27160493827161,0)" xlink:href="#bv"/></g><g id="H"><use transform="matrix(0.06172839506172839,0,0,0.06172839506172839,0,0)" xlink:href="#aI"/><use transform="matrix(0.06172839506172839,0,0,0.06172839506172839,18.456790123456788,0)" xlink:href="#ax"/><use transform="matrix(0.06172839506172839,0,0,0.06172839506172839,33.2716049382716,0)" xlink:href="#aR"/></g><g id="I"><use transform="matrix(0.06172839506172839,0,0,0.06172839506172839,0,0)" xlink:href="#be"/><use transform="matrix(0.06172839506172839,0,0,0.06172839506172839,6.172839506172839,0)" xlink:href="#aX"/><use transform="matrix(0.06172839506172839,0,0,0.06172839506172839,24.629629629629626,0)" xlink:href="#aM"/><use transform="matrix(0.06172839506172839,0,0,0.06172839506172839,36.9753086419753,0)" xlink:href="#av"/><use transform="matrix(0.06172839506172839,0,0,0.06172839506172839,49.32098765432098,0)" xlink:href="#aB"/><use transform="matrix(0.06172839506172839,0,0,0.06172839506172839,60.43209876543209,0)" xlink:href="#aw"/></g><g id="J"><use transform="matrix(0.06172839506172839,0,0,0.06172839506172839,0,0)" xlink:href="#ax"/><use transform="matrix(0.06172839506172839,0,0,0.06172839506172839,14.814814814814813,0)" xlink:href="#aw"/><use transform="matrix(0.06172839506172839,0,0,0.06172839506172839,20.98765432098765,0)" xlink:href="#aA"/><use transform="matrix(0.06172839506172839,0,0,0.06172839506172839,28.33333333333333,0)" xlink:href="#az"/><use transform="matrix(0.06172839506172839,0,0,0.06172839506172839,40.679012345679006,0)" xlink:href="#aB"/><use transform="matrix(0.06172839506172839,0,0,0.06172839506172839,51.79012345679011,0)" xlink:href="#aw"/><use transform="matrix(0.06172839506172839,0,0,0.06172839506172839,57.962962962962955,0)" xlink:href="#az"/><use transform="matrix(0.06172839506172839,0,0,0.06172839506172839,70.30864197530863,0)" xlink:href="#aA"/><use transform="matrix(0.06172839506172839,0,0,0.06172839506172839,77.65432098765432,0)" xlink:href="#aC"/><use transform="matrix(0.06172839506172839,0,0,0.06172839506172839,90,0)" xlink:href="#aK"/></g><g id="K"><use transform="matrix(0.06172839506172839,0,0,0.06172839506172839,0,0)" xlink:href="#aT"/><use transform="matrix(0.06172839506172839,0,0,0.06172839506172839,17.28395061728395,0)" xlink:href="#aC"/><use transform="matrix(0.06172839506172839,0,0,0.06172839506172839,29.629629629629626,0)" xlink:href="#aN"/><use transform="matrix(0.06172839506172839,0,0,0.06172839506172839,41.9753086419753,0)" xlink:href="#aF"/><use transform="matrix(0.06172839506172839,0,0,0.06172839506172839,46.85185185185185,0)" xlink:href="#aC"/></g><path fill="#3a414a" d="M212-179c-10-28-35-45-73-45-59 0-87 40-87 99 0 60 29 101 89 101 43 0 62-24 78-52l27 14C228-24 195 4 139 4 59 4 22-46 18-125c-6-104 99-153 187-111 19 9 31 26 39 46" id="bw"/><g id="L"><use transform="matrix(0.06172839506172839,0,0,0.06172839506172839,0,0)" xlink:href="#bw"/><use transform="matrix(0.06172839506172839,0,0,0.06172839506172839,15.987654320987653,0)" xlink:href="#av"/><use transform="matrix(0.06172839506172839,0,0,0.06172839506172839,28.333333333333332,0)" xlink:href="#aN"/><use transform="matrix(0.06172839506172839,0,0,0.06172839506172839,40.67901234567901,0)" xlink:href="#aB"/><use transform="matrix(0.06172839506172839,0,0,0.06172839506172839,51.79012345679013,0)" xlink:href="#aC"/><use transform="matrix(0.06172839506172839,0,0,0.06172839506172839,64.13580246913581,0)" xlink:href="#aA"/><use transform="matrix(0.06172839506172839,0,0,0.06172839506172839,71.4814814814815,0)" xlink:href="#aR"/><use transform="matrix(0.06172839506172839,0,0,0.06172839506172839,86.2962962962963,0)" xlink:href="#aT"/></g><g id="M"><use transform="matrix(0.06172839506172839,0,0,0.06172839506172839,0,0)" xlink:href="#aG"/><use transform="matrix(0.06172839506172839,0,0,0.06172839506172839,11.11111111111111,0)" xlink:href="#bj"/></g><g id="N"><use transform="matrix(0.06172839506172839,0,0,0.06172839506172839,0,0)" xlink:href="#aO"/><use transform="matrix(0.06172839506172839,0,0,0.06172839506172839,13.518518518518517,0)" xlink:href="#bw"/><use transform="matrix(0.06172839506172839,0,0,0.06172839506172839,29.50617283950617,0)" xlink:href="#aT"/><use transform="matrix(0.06172839506172839,0,0,0.06172839506172839,46.79012345679012,0)" xlink:href="#aL"/></g><g id="O"><use transform="matrix(0.06172839506172839,0,0,0.06172839506172839,0,0)" xlink:href="#aB"/><use transform="matrix(0.06172839506172839,0,0,0.06172839506172839,11.11111111111111,0)" xlink:href="#ay"/><use transform="matrix(0.06172839506172839,0,0,0.06172839506172839,23.45679012345679,0)" xlink:href="#aD"/><use transform="matrix(0.06172839506172839,0,0,0.06172839506172839,34.5679012345679,0)" xlink:href="#aF"/><use transform="matrix(0.06172839506172839,0,0,0.06172839506172839,39.44444444444444,0)" xlink:href="#aN"/><use transform="matrix(0.06172839506172839,0,0,0.06172839506172839,51.79012345679012,0)" xlink:href="#aC"/></g><path fill="#3a414a" d="M179-190L93 31C79 59 56 82 12 73V49c39 6 53-20 64-50L1-190h34L92-34l54-156h33" id="bx"/><g id="P"><use transform="matrix(0.06172839506172839,0,0,0.06172839506172839,0,0)" xlink:href="#aD"/><use transform="matrix(0.06172839506172839,0,0,0.06172839506172839,11.11111111111111,0)" xlink:href="#aF"/><use transform="matrix(0.06172839506172839,0,0,0.06172839506172839,15.987654320987653,0)" xlink:href="#aX"/><use transform="matrix(0.06172839506172839,0,0,0.06172839506172839,34.44444444444444,0)" xlink:href="#aF"/><use transform="matrix(0.06172839506172839,0,0,0.06172839506172839,39.32098765432099,0)" xlink:href="#aH"/><use transform="matrix(0.06172839506172839,0,0,0.06172839506172839,44.19753086419753,0)" xlink:href="#av"/><use transform="matrix(0.06172839506172839,0,0,0.06172839506172839,56.54320987654321,0)" xlink:href="#aA"/><use transform="matrix(0.06172839506172839,0,0,0.06172839506172839,63.888888888888886,0)" xlink:href="#aF"/><use transform="matrix(0.06172839506172839,0,0,0.06172839506172839,68.76543209876543,0)" xlink:href="#aw"/><use transform="matrix(0.06172839506172839,0,0,0.06172839506172839,74.93827160493827,0)" xlink:href="#bx"/></g><path fill="#3a414a" d="M206 0h-36l-40-164L89 0H53L-1-190h32L70-26l43-164h34l41 164 42-164h31" id="by"/><g id="Q"><use transform="matrix(0.06172839506172839,0,0,0.06172839506172839,0,0)" xlink:href="#aP"/><use transform="matrix(0.06172839506172839,0,0,0.06172839506172839,11.11111111111111,0)" xlink:href="#aC"/><use transform="matrix(0.06172839506172839,0,0,0.06172839506172839,23.45679012345679,0)" xlink:href="#bx"/><use transform="matrix(0.06172839506172839,0,0,0.06172839506172839,34.5679012345679,0)" xlink:href="#aY"/><use transform="matrix(0.06172839506172839,0,0,0.06172839506172839,41.913580246913575,0)" xlink:href="#by"/><use transform="matrix(0.06172839506172839,0,0,0.06172839506172839,57.90123456790123,0)" xlink:href="#ay"/><use transform="matrix(0.06172839506172839,0,0,0.06172839506172839,70.24691358024691,0)" xlink:href="#aA"/><use transform="matrix(0.06172839506172839,0,0,0.06172839506172839,77.5925925925926,0)" xlink:href="#aK"/><use transform="matrix(0.06172839506172839,0,0,0.06172839506172839,89.93827160493828,0)" xlink:href="#aD"/></g><path fill="#3a414a" d="M87 75C49 33 22-17 22-94c0-76 28-126 65-167h31c-38 41-64 92-64 168S80 34 118 75H87" id="bz"/><g id="R"><use transform="matrix(0.06172839506172839,0,0,0.06172839506172839,0,0)" xlink:href="#bz"/><use transform="matrix(0.06172839506172839,0,0,0.06172839506172839,7.345679012345679,0)" xlink:href="#aB"/><use transform="matrix(0.06172839506172839,0,0,0.06172839506172839,18.45679012345679,0)" xlink:href="#ay"/><use transform="matrix(0.06172839506172839,0,0,0.06172839506172839,30.80246913580247,0)" xlink:href="#aD"/><use transform="matrix(0.06172839506172839,0,0,0.06172839506172839,41.91358024691358,0)" xlink:href="#aF"/><use transform="matrix(0.06172839506172839,0,0,0.06172839506172839,46.79012345679013,0)" xlink:href="#aN"/><use transform="matrix(0.06172839506172839,0,0,0.06172839506172839,59.135802469135804,0)" xlink:href="#aC"/></g><g id="S"><use transform="matrix(0.06172839506172839,0,0,0.06172839506172839,0,0)" xlink:href="#aD"/><use transform="matrix(0.06172839506172839,0,0,0.06172839506172839,11.11111111111111,0)" xlink:href="#aF"/><use transform="matrix(0.06172839506172839,0,0,0.06172839506172839,15.987654320987653,0)" xlink:href="#aX"/><use transform="matrix(0.06172839506172839,0,0,0.06172839506172839,34.44444444444444,0)" xlink:href="#aF"/><use transform="matrix(0.06172839506172839,0,0,0.06172839506172839,39.32098765432099,0)" xlink:href="#aH"/><use transform="matrix(0.06172839506172839,0,0,0.06172839506172839,44.19753086419753,0)" xlink:href="#av"/><use transform="matrix(0.06172839506172839,0,0,0.06172839506172839,56.54320987654321,0)" xlink:href="#aA"/><use transform="matrix(0.06172839506172839,0,0,0.06172839506172839,63.888888888888886,0)" xlink:href="#aF"/><use transform="matrix(0.06172839506172839,0,0,0.06172839506172839,68.76543209876543,0)" xlink:href="#aw"/><use transform="matrix(0.06172839506172839,0,0,0.06172839506172839,74.93827160493827,0)" xlink:href="#bx"/></g><g id="T"><use transform="matrix(0.06172839506172839,0,0,0.06172839506172839,0,0)" xlink:href="#ay"/><use transform="matrix(0.06172839506172839,0,0,0.06172839506172839,12.345679012345679,0)" xlink:href="#aA"/></g><g id="U"><use transform="matrix(0.06172839506172839,0,0,0.06172839506172839,0,0)" xlink:href="#aC"/><use transform="matrix(0.06172839506172839,0,0,0.06172839506172839,12.345679012345679,0)" xlink:href="#bc"/><use transform="matrix(0.06172839506172839,0,0,0.06172839506172839,23.45679012345679,0)" xlink:href="#av"/><use transform="matrix(0.06172839506172839,0,0,0.06172839506172839,35.80246913580247,0)" xlink:href="#aB"/><use transform="matrix(0.06172839506172839,0,0,0.06172839506172839,46.91358024691358,0)" xlink:href="#aw"/></g><path fill="#3a414a" d="M33-261c38 41 65 92 65 168S71 34 33 75H2C39 34 66-17 66-93S39-220 2-261h31" id="bA"/><g id="V"><use transform="matrix(0.06172839506172839,0,0,0.06172839506172839,0,0)" xlink:href="#aX"/><use transform="matrix(0.06172839506172839,0,0,0.06172839506172839,18.456790123456788,0)" xlink:href="#av"/><use transform="matrix(0.06172839506172839,0,0,0.06172839506172839,30.80246913580247,0)" xlink:href="#aw"/><use transform="matrix(0.06172839506172839,0,0,0.06172839506172839,36.97530864197531,0)" xlink:href="#aB"/><use transform="matrix(0.06172839506172839,0,0,0.06172839506172839,48.08641975308642,0)" xlink:href="#aJ"/><use transform="matrix(0.06172839506172839,0,0,0.06172839506172839,60.432098765432094,0)" xlink:href="#bA"/></g><g id="W"><use transform="matrix(0.06172839506172839,0,0,0.06172839506172839,0,0)" xlink:href="#aD"/><use transform="matrix(0.06172839506172839,0,0,0.06172839506172839,11.11111111111111,0)" xlink:href="#aC"/><use transform="matrix(0.06172839506172839,0,0,0.06172839506172839,23.45679012345679,0)" xlink:href="#aN"/><use transform="matrix(0.06172839506172839,0,0,0.06172839506172839,35.80246913580247,0)" xlink:href="#aw"/><use transform="matrix(0.06172839506172839,0,0,0.06172839506172839,41.97530864197531,0)" xlink:href="#aC"/><use transform="matrix(0.06172839506172839,0,0,0.06172839506172839,54.32098765432099,0)" xlink:href="#aN"/><use transform="matrix(0.06172839506172839,0,0,0.06172839506172839,66.66666666666667,0)" xlink:href="#aB"/><use transform="matrix(0.06172839506172839,0,0,0.06172839506172839,77.77777777777779,0)" xlink:href="#aC"/><use transform="matrix(0.06172839506172839,0,0,0.06172839506172839,90.12345679012347,0)" xlink:href="#aY"/><use transform="matrix(0.06172839506172839,0,0,0.06172839506172839,97.46913580246915,0)" xlink:href="#aw"/><use transform="matrix(0.06172839506172839,0,0,0.06172839506172839,103.64197530864199,0)" xlink:href="#aA"/><use transform="matrix(0.06172839506172839,0,0,0.06172839506172839,110.98765432098767,0)" xlink:href="#av"/><use transform="matrix(0.06172839506172839,0,0,0.06172839506172839,123.33333333333336,0)" xlink:href="#aN"/><use transform="matrix(0.06172839506172839,0,0,0.06172839506172839,135.67901234567904,0)" xlink:href="#aD"/><use transform="matrix(0.06172839506172839,0,0,0.06172839506172839,146.79012345679016,0)" xlink:href="#aU"/><use transform="matrix(0.06172839506172839,0,0,0.06172839506172839,152.962962962963,0)" xlink:href="#ay"/><use transform="matrix(0.06172839506172839,0,0,0.06172839506172839,165.30864197530866,0)" xlink:href="#aA"/><use transform="matrix(0.06172839506172839,0,0,0.06172839506172839,172.65432098765433,0)" xlink:href="#aX"/><use transform="matrix(0.06172839506172839,0,0,0.06172839506172839,191.11111111111111,0)" xlink:href="#aC"/><use transform="matrix(0.06172839506172839,0,0,0.06172839506172839,203.45679012345678,0)" xlink:href="#aA"/><use transform="matrix(0.06172839506172839,0,0,0.06172839506172839,210.80246913580245,0)" xlink:href="#aD"/></g><path fill="#3a414a" d="M110-160c48 1 74 30 74 79 0 53-28 85-80 85-65 0-83-55-86-122-5-90 50-162 133-122 14 7 22 21 27 39l-31 6c-5-40-67-38-82-6-9 19-15 44-15 74 11-20 30-34 60-33zm-7 138c34 0 49-23 49-58s-16-56-50-56c-29 0-50 16-49 49 1 36 15 65 50 65" id="bB"/><g id="X"><use transform="matrix(0.06172839506172839,0,0,0.06172839506172839,0,0)" xlink:href="#av"/><use transform="matrix(0.06172839506172839,0,0,0.06172839506172839,12.345679012345679,0)" xlink:href="#aH"/><use transform="matrix(0.06172839506172839,0,0,0.06172839506172839,17.22222222222222,0)" xlink:href="#aH"/><use transform="matrix(0.06172839506172839,0,0,0.06172839506172839,22.098765432098766,0)" xlink:href="#aY"/><use transform="matrix(0.06172839506172839,0,0,0.06172839506172839,29.444444444444443,0)" xlink:href="#aI"/><use transform="matrix(0.06172839506172839,0,0,0.06172839506172839,47.90123456790123,0)" xlink:href="#aF"/><use transform="matrix(0.06172839506172839,0,0,0.06172839506172839,52.77777777777777,0)" xlink:href="#aN"/><use transform="matrix(0.06172839506172839,0,0,0.06172839506172839,65.12345679012346,0)" xlink:href="#aF"/><use transform="matrix(0.06172839506172839,0,0,0.06172839506172839,70,0)" xlink:href="#aW"/><use transform="matrix(0.06172839506172839,0,0,0.06172839506172839,82.34567901234568,0)" xlink:href="#aI"/><use transform="matrix(0.06172839506172839,0,0,0.06172839506172839,100.80246913580247,0)" xlink:href="#aY"/><use transform="matrix(0.06172839506172839,0,0,0.06172839506172839,108.14814814814815,0)" xlink:href="#aW"/><use transform="matrix(0.06172839506172839,0,0,0.06172839506172839,120.49382716049384,0)" xlink:href="#bB"/><use transform="matrix(0.06172839506172839,0,0,0.06172839506172839,132.83950617283952,0)" xlink:href="#aY"/><use transform="matrix(0.06172839506172839,0,0,0.06172839506172839,140.1851851851852,0)" xlink:href="#aG"/><use transform="matrix(0.06172839506172839,0,0,0.06172839506172839,151.2962962962963,0)" xlink:href="#ba"/></g><path fill="#3a414a" d="M63-220v92h138v28H63V0H30v-248h175v28H63" id="bC"/><g id="Y"><use transform="matrix(0.06172839506172839,0,0,0.06172839506172839,0,0)" xlink:href="#bC"/><use transform="matrix(0.06172839506172839,0,0,0.06172839506172839,13.518518518518517,0)" xlink:href="#aY"/><use transform="matrix(0.06172839506172839,0,0,0.06172839506172839,20.864197530864196,0)" xlink:href="#aD"/><use transform="matrix(0.06172839506172839,0,0,0.06172839506172839,31.975308641975307,0)" xlink:href="#aB"/><use transform="matrix(0.06172839506172839,0,0,0.06172839506172839,43.08641975308642,0)" xlink:href="#ay"/><use transform="matrix(0.06172839506172839,0,0,0.06172839506172839,55.432098765432094,0)" xlink:href="#aA"/><use transform="matrix(0.06172839506172839,0,0,0.06172839506172839,62.77777777777777,0)" xlink:href="#aC"/></g><g id="Z"><use transform="matrix(0.06172839506172839,0,0,0.06172839506172839,0,0)" xlink:href="#aI"/><use transform="matrix(0.06172839506172839,0,0,0.06172839506172839,18.456790123456788,0)" xlink:href="#bf"/><use transform="matrix(0.06172839506172839,0,0,0.06172839506172839,33.2716049382716,0)" xlink:href="#aO"/><use transform="matrix(0.06172839506172839,0,0,0.06172839506172839,46.79012345679012,0)" xlink:href="#bf"/><use transform="matrix(0.06172839506172839,0,0,0.06172839506172839,61.60493827160494,0)" xlink:href="#aQ"/><use transform="matrix(0.06172839506172839,0,0,0.06172839506172839,78.88888888888889,0)" xlink:href="#aE"/></g><path fill="#3a414a" d="M140-251c81 0 123 46 123 126C263-53 228-8 163 1c7 30 30 48 69 40v23c-55 16-95-15-103-61C56-3 17-48 17-125c0-80 42-126 123-126zm0 227c63 0 89-41 89-101s-29-99-89-99c-61 0-89 39-89 99S79-25 140-24" id="bD"/><g id="aa"><use transform="matrix(0.06172839506172839,0,0,0.06172839506172839,0,0)" xlink:href="#bz"/><use transform="matrix(0.06172839506172839,0,0,0.06172839506172839,7.345679012345679,0)" xlink:href="#bD"/><use transform="matrix(0.06172839506172839,0,0,0.06172839506172839,24.629629629629626,0)" xlink:href="#bA"/><use transform="matrix(0.06172839506172839,0,0,0.06172839506172839,31.9753086419753,0)" xlink:href="#aW"/><use transform="matrix(0.06172839506172839,0,0,0.06172839506172839,44.32098765432098,0)" xlink:href="#ay"/><use transform="matrix(0.06172839506172839,0,0,0.06172839506172839,56.66666666666666,0)" xlink:href="#aE"/><use transform="matrix(0.06172839506172839,0,0,0.06172839506172839,72.65432098765432,0)" xlink:href="#aL"/></g><g id="ab"><use transform="matrix(0.06172839506172839,0,0,0.06172839506172839,0,0)" xlink:href="#aE"/><use transform="matrix(0.06172839506172839,0,0,0.06172839506172839,15.987654320987653,0)" xlink:href="#aC"/><use transform="matrix(0.06172839506172839,0,0,0.06172839506172839,28.333333333333332,0)" xlink:href="#av"/><use transform="matrix(0.06172839506172839,0,0,0.06172839506172839,40.67901234567901,0)" xlink:href="#aB"/><use transform="matrix(0.06172839506172839,0,0,0.06172839506172839,51.79012345679013,0)" xlink:href="#aw"/><use transform="matrix(0.06172839506172839,0,0,0.06172839506172839,57.96296296296297,0)" xlink:href="#ay"/><use transform="matrix(0.06172839506172839,0,0,0.06172839506172839,70.30864197530865,0)" xlink:href="#aX"/><use transform="matrix(0.06172839506172839,0,0,0.06172839506172839,88.76543209876543,0)" xlink:href="#aC"/></g><g id="ac"><use transform="matrix(0.06172839506172839,0,0,0.06172839506172839,0,0)" xlink:href="#au"/><use transform="matrix(0.06172839506172839,0,0,0.06172839506172839,15.987654320987653,0)" xlink:href="#aC"/><use transform="matrix(0.06172839506172839,0,0,0.06172839506172839,28.333333333333332,0)" xlink:href="#aM"/><use transform="matrix(0.06172839506172839,0,0,0.06172839506172839,40.67901234567901,0)" xlink:href="#aI"/><use transform="matrix(0.06172839506172839,0,0,0.06172839506172839,59.1358024691358,0)" xlink:href="#av"/><use transform="matrix(0.06172839506172839,0,0,0.06172839506172839,71.48148148148148,0)" xlink:href="#aM"/></g><g id="ad"><use transform="matrix(0.06172839506172839,0,0,0.06172839506172839,0,0)" xlink:href="#aW"/><use transform="matrix(0.06172839506172839,0,0,0.06172839506172839,12.345679012345679,0)" xlink:href="#be"/><use transform="matrix(0.06172839506172839,0,0,0.06172839506172839,18.51851851851852,0)" xlink:href="#bb"/><use transform="matrix(0.06172839506172839,0,0,0.06172839506172839,34.50617283950617,0)" xlink:href="#bw"/><use transform="matrix(0.06172839506172839,0,0,0.06172839506172839,50.49382716049382,0)" xlink:href="#ax"/></g><g id="ae"><use transform="matrix(0.06172839506172839,0,0,0.06172839506172839,0,0)" xlink:href="#aT"/><use transform="matrix(0.06172839506172839,0,0,0.06172839506172839,17.28395061728395,0)" xlink:href="#aC"/><use transform="matrix(0.06172839506172839,0,0,0.06172839506172839,29.629629629629626,0)" xlink:href="#aN"/><use transform="matrix(0.06172839506172839,0,0,0.06172839506172839,41.9753086419753,0)" xlink:href="#aC"/></g><g id="af"><use transform="matrix(0.06172839506172839,0,0,0.06172839506172839,0,0)" xlink:href="#aQ"/><use transform="matrix(0.06172839506172839,0,0,0.06172839506172839,17.28395061728395,0)" xlink:href="#aN"/><use transform="matrix(0.06172839506172839,0,0,0.06172839506172839,29.629629629629626,0)" xlink:href="#aw"/><use transform="matrix(0.06172839506172839,0,0,0.06172839506172839,35.80246913580247,0)" xlink:href="#ay"/><use transform="matrix(0.06172839506172839,0,0,0.06172839506172839,48.148148148148145,0)" xlink:href="#aH"/><use transform="matrix(0.06172839506172839,0,0,0.06172839506172839,53.02469135802469,0)" xlink:href="#ay"/><use transform="matrix(0.06172839506172839,0,0,0.06172839506172839,65.37037037037037,0)" xlink:href="#bl"/><use transform="matrix(0.06172839506172839,0,0,0.06172839506172839,77.71604938271605,0)" xlink:href="#bx"/></g><g id="ag"><use transform="matrix(0.06172839506172839,0,0,0.06172839506172839,0,0)" xlink:href="#bw"/><use transform="matrix(0.06172839506172839,0,0,0.06172839506172839,15.987654320987653,0)" xlink:href="#av"/><use transform="matrix(0.06172839506172839,0,0,0.06172839506172839,28.333333333333332,0)" xlink:href="#aN"/><use transform="matrix(0.06172839506172839,0,0,0.06172839506172839,40.67901234567901,0)" xlink:href="#aB"/><use transform="matrix(0.06172839506172839,0,0,0.06172839506172839,51.79012345679013,0)" xlink:href="#aC"/><use transform="matrix(0.06172839506172839,0,0,0.06172839506172839,64.13580246913581,0)" xlink:href="#aA"/><use transform="matrix(0.06172839506172839,0,0,0.06172839506172839,71.4814814814815,0)" xlink:href="#aR"/><use transform="matrix(0.06172839506172839,0,0,0.06172839506172839,86.2962962962963,0)" xlink:href="#aT"/></g><g id="ah"><use transform="matrix(0.06172839506172839,0,0,0.06172839506172839,0,0)" xlink:href="#aG"/><use transform="matrix(0.06172839506172839,0,0,0.06172839506172839,11.11111111111111,0)" xlink:href="#bj"/><use transform="matrix(0.06172839506172839,0,0,0.06172839506172839,23.45679012345679,0)" xlink:href="#bu"/><use transform="matrix(0.06172839506172839,0,0,0.06172839506172839,29.62962962962963,0)" xlink:href="#bj"/></g><g id="ai"><use transform="matrix(0.06172839506172839,0,0,0.06172839506172839,0,0)" xlink:href="#bh"/><use transform="matrix(0.06172839506172839,0,0,0.06172839506172839,14.814814814814813,0)" xlink:href="#bj"/><use transform="matrix(0.06172839506172839,0,0,0.06172839506172839,27.160493827160494,0)" xlink:href="#bu"/><use transform="matrix(0.06172839506172839,0,0,0.06172839506172839,33.333333333333336,0)" xlink:href="#bj"/></g><g id="aj"><use transform="matrix(0.06172839506172839,0,0,0.06172839506172839,0,0)" xlink:href="#aO"/><use transform="matrix(0.06172839506172839,0,0,0.06172839506172839,11.049382716049381,0)" xlink:href="#aC"/><use transform="matrix(0.06172839506172839,0,0,0.06172839506172839,23.39506172839506,0)" xlink:href="#bc"/><use transform="matrix(0.06172839506172839,0,0,0.06172839506172839,34.50617283950617,0)" xlink:href="#aw"/><use transform="matrix(0.06172839506172839,0,0,0.06172839506172839,40.67901234567901,0)" xlink:href="#ba"/><use transform="matrix(0.06172839506172839,0,0,0.06172839506172839,53.02469135802469,0)" xlink:href="#bw"/><use transform="matrix(0.06172839506172839,0,0,0.06172839506172839,69.01234567901234,0)" xlink:href="#bx"/><use transform="matrix(0.06172839506172839,0,0,0.06172839506172839,80.12345679012346,0)" xlink:href="#aM"/><use transform="matrix(0.06172839506172839,0,0,0.06172839506172839,92.46913580246914,0)" xlink:href="#aJ"/><use transform="matrix(0.06172839506172839,0,0,0.06172839506172839,104.81481481481482,0)" xlink:href="#aC"/><use transform="matrix(0.06172839506172839,0,0,0.06172839506172839,117.16049382716051,0)" xlink:href="#aA"/></g><path fill="#3a414a" d="M0 4l72-265h28L28 4H0" id="bE"/><use transform="matrix(0.06172839506172839,0,0,0.06172839506172839,0,0)" xlink:href="#bE" id="ak"/><path fill="#3a414a" d="M145-31C134-9 116 4 85 4 32 4 16-35 15-94c0-59 17-99 70-100 32-1 48 14 60 33 0-11-1-24 2-32h30l-1 268h-32zM93-21c41 0 51-33 51-76s-8-73-50-73c-40 0-46 35-46 75s5 74 45 74" id="bF"/><g id="al"><use transform="matrix(0.06172839506172839,0,0,0.06172839506172839,0,0)" xlink:href="#aO"/><use transform="matrix(0.06172839506172839,0,0,0.06172839506172839,11.049382716049381,0)" xlink:href="#aC"/><use transform="matrix(0.06172839506172839,0,0,0.06172839506172839,23.39506172839506,0)" xlink:href="#bc"/><use transform="matrix(0.06172839506172839,0,0,0.06172839506172839,34.50617283950617,0)" xlink:href="#aw"/><use transform="matrix(0.06172839506172839,0,0,0.06172839506172839,40.67901234567901,0)" xlink:href="#ba"/><use transform="matrix(0.06172839506172839,0,0,0.06172839506172839,53.02469135802469,0)" xlink:href="#ax"/><use transform="matrix(0.06172839506172839,0,0,0.06172839506172839,67.8395061728395,0)" xlink:href="#aM"/><use transform="matrix(0.06172839506172839,0,0,0.06172839506172839,80.18518518518519,0)" xlink:href="#av"/><use transform="matrix(0.06172839506172839,0,0,0.06172839506172839,92.53086419753087,0)" xlink:href="#aA"/><use transform="matrix(0.06172839506172839,0,0,0.06172839506172839,99.87654320987656,0)" xlink:href="#bF"/><use transform="matrix(0.06172839506172839,0,0,0.06172839506172839,112.22222222222224,0)" xlink:href="#aH"/></g><g id="am"><use transform="matrix(0.06172839506172839,0,0,0.06172839506172839,0,0)" xlink:href="#aT"/><use transform="matrix(0.06172839506172839,0,0,0.06172839506172839,17.28395061728395,0)" xlink:href="#aA"/><use transform="matrix(0.06172839506172839,0,0,0.06172839506172839,24.629629629629626,0)" xlink:href="#av"/><use transform="matrix(0.06172839506172839,0,0,0.06172839506172839,36.9753086419753,0)" xlink:href="#aM"/><use transform="matrix(0.06172839506172839,0,0,0.06172839506172839,49.32098765432098,0)" xlink:href="#aJ"/></g><g id="an"><use transform="matrix(0.06172839506172839,0,0,0.06172839506172839,0,0)" xlink:href="#aE"/><use transform="matrix(0.06172839506172839,0,0,0.06172839506172839,15.987654320987653,0)" xlink:href="#aL"/><use transform="matrix(0.06172839506172839,0,0,0.06172839506172839,30.80246913580247,0)" xlink:href="#aT"/></g><g id="ao"><use transform="matrix(0.06172839506172839,0,0,0.06172839506172839,0,0)" xlink:href="#aW"/><use transform="matrix(0.06172839506172839,0,0,0.06172839506172839,12.345679012345679,0)" xlink:href="#aH"/><use transform="matrix(0.06172839506172839,0,0,0.06172839506172839,17.22222222222222,0)" xlink:href="#av"/><use transform="matrix(0.06172839506172839,0,0,0.06172839506172839,29.5679012345679,0)" xlink:href="#aX"/><use transform="matrix(0.06172839506172839,0,0,0.06172839506172839,48.02469135802468,0)" xlink:href="#av"/><use transform="matrix(0.06172839506172839,0,0,0.06172839506172839,60.37037037037036,0)" xlink:href="#aY"/><use transform="matrix(0.06172839506172839,0,0,0.06172839506172839,67.71604938271604,0)" xlink:href="#ba"/></g><g id="ap"><use transform="matrix(0.06172839506172839,0,0,0.06172839506172839,0,0)" xlink:href="#aZ"/><use transform="matrix(0.06172839506172839,0,0,0.06172839506172839,12.345679012345679,0)" xlink:href="#bi"/><use transform="matrix(0.06172839506172839,0,0,0.06172839506172839,24.691358024691358,0)" xlink:href="#bk"/><use transform="matrix(0.06172839506172839,0,0,0.06172839506172839,37.03703703703704,0)" xlink:href="#aY"/><use transform="matrix(0.06172839506172839,0,0,0.06172839506172839,44.382716049382715,0)" xlink:href="#aB"/><use transform="matrix(0.06172839506172839,0,0,0.06172839506172839,55.49382716049382,0)" xlink:href="#aJ"/><use transform="matrix(0.06172839506172839,0,0,0.06172839506172839,67.8395061728395,0)" xlink:href="#av"/><use transform="matrix(0.06172839506172839,0,0,0.06172839506172839,80.18518518518519,0)" xlink:href="#aw"/><use transform="matrix(0.06172839506172839,0,0,0.06172839506172839,86.35802469135803,0)" xlink:href="#aY"/><use transform="matrix(0.06172839506172839,0,0,0.06172839506172839,93.70370370370371,0)" xlink:href="#aJ"/><use transform="matrix(0.06172839506172839,0,0,0.06172839506172839,106.0493827160494,0)" xlink:href="#aU"/></g><g id="aq"><use transform="matrix(0.06172839506172839,0,0,0.06172839506172839,0,0)" xlink:href="#bg"/><use transform="matrix(0.06172839506172839,0,0,0.06172839506172839,15.987654320987653,0)" xlink:href="#aD"/><use transform="matrix(0.06172839506172839,0,0,0.06172839506172839,27.098765432098766,0)" xlink:href="#aC"/><use transform="matrix(0.06172839506172839,0,0,0.06172839506172839,39.44444444444444,0)" xlink:href="#aA"/></g><g id="ar"><use transform="matrix(0.06172839506172839,0,0,0.06172839506172839,0,0)" xlink:href="#be"/><use transform="matrix(0.06172839506172839,0,0,0.06172839506172839,6.172839506172839,0)" xlink:href="#aN"/><use transform="matrix(0.06172839506172839,0,0,0.06172839506172839,18.51851851851852,0)" xlink:href="#aw"/><use transform="matrix(0.06172839506172839,0,0,0.06172839506172839,24.691358024691358,0)" xlink:href="#aC"/><use transform="matrix(0.06172839506172839,0,0,0.06172839506172839,37.03703703703704,0)" xlink:href="#aA"/><use transform="matrix(0.06172839506172839,0,0,0.06172839506172839,44.382716049382715,0)" xlink:href="#aU"/><use transform="matrix(0.06172839506172839,0,0,0.06172839506172839,50.55555555555556,0)" xlink:href="#av"/><use transform="matrix(0.06172839506172839,0,0,0.06172839506172839,62.901234567901234,0)" xlink:href="#aB"/><use transform="matrix(0.06172839506172839,0,0,0.06172839506172839,74.01234567901234,0)" xlink:href="#aC"/></g><g id="as"><use transform="matrix(0.06172839506172839,0,0,0.06172839506172839,0,0)" xlink:href="#bw"/><use transform="matrix(0.06172839506172839,0,0,0.06172839506172839,15.987654320987653,0)" xlink:href="#aJ"/><use transform="matrix(0.06172839506172839,0,0,0.06172839506172839,28.333333333333332,0)" xlink:href="#av"/><use transform="matrix(0.06172839506172839,0,0,0.06172839506172839,40.67901234567901,0)" xlink:href="#aw"/></g><g id="at"><use transform="matrix(0.06172839506172839,0,0,0.06172839506172839,0,0)" xlink:href="#aT"/><use transform="matrix(0.06172839506172839,0,0,0.06172839506172839,17.28395061728395,0)" xlink:href="#aA"/><use transform="matrix(0.06172839506172839,0,0,0.06172839506172839,24.629629629629626,0)" xlink:href="#av"/><use transform="matrix(0.06172839506172839,0,0,0.06172839506172839,36.9753086419753,0)" xlink:href="#aM"/><use transform="matrix(0.06172839506172839,0,0,0.06172839506172839,49.32098765432098,0)" xlink:href="#aJ"/></g></defs></g></svg>